<?xml version="1.0" encoding="utf-8"?>
<!-- Generator: Adobe Illustrator 17.0.0, SVG Export Plug-In . SVG Version: 6.00 Build 0)  -->
<!DOCTYPE svg PUBLIC "-//W3C//DTD SVG 1.1//EN" "http://www.w3.org/Graphics/SVG/1.1/DTD/svg11.dtd">
<svg version="1.1" id="图层_1" xmlns="http://www.w3.org/2000/svg" xmlns:xlink="http://www.w3.org/1999/xlink" x="0px" y="0px"
	 width="1400px" height="1000px" viewBox="0 0 1400 1000" enable-background="new 0 0 1400 1000" xml:space="preserve">
<rect x="0.32" y="0" fill="#C4E7FD" width="1402.305" height="479.618"/>
<path fill="#B0DFFF" d="M149.317,474.378h10.037v-58.933h33.824v58.933h4.933v-36.529h26.073v-44.564h33.824v81.094h7.047V382.24
	l33.824,10.715v81.423h8.636v5.601H149.317V474.378L149.317,474.378z M163.215,418.598v2.168h16.344v-2.168H163.215L163.215,418.598
	z M208.342,443.231h2.373v-2.168h-2.373V443.231L208.342,443.231z M213.005,443.231h2.374v-2.168h-2.374V443.231L213.005,443.231z
	 M217.1,443.231h2.374v-2.168H217.1V443.231L217.1,443.231z M208.342,451.218h2.373v-2.168h-2.373V451.218L208.342,451.218z
	 M213.005,451.218h2.374v-2.168h-2.374V451.218L213.005,451.218z M217.1,451.218h2.374v-2.168H217.1V451.218L217.1,451.218z
	 M208.342,458.749h2.373v-2.168h-2.373V458.749L208.342,458.749z M213.005,458.749h2.374v-2.168h-2.374V458.749L213.005,458.749z
	 M217.1,458.749h2.374v-2.168H217.1V458.749L217.1,458.749z M284.922,399.695h2.373v-2.168h-2.373V399.695L284.922,399.695z
	 M270.692,399.695h2.374v-2.168h-2.374V399.695L270.692,399.695z M275.357,399.695h2.373v-2.168h-2.373V399.695L275.357,399.695z
	 M279.451,399.695h2.374v-2.168h-2.374V399.695L279.451,399.695z M284.922,407.683h2.373v-2.168h-2.373V407.683L284.922,407.683z
	 M270.692,407.683h2.374v-2.168h-2.374V407.683L270.692,407.683z M275.357,407.683h2.373v-2.168h-2.373V407.683L275.357,407.683z
	 M279.451,407.683h2.374v-2.168h-2.374V407.683L279.451,407.683z M270.701,411.511h16.343v-2.168h-16.343V411.511L270.701,411.511z
	 M284.922,415.213h2.373v-2.168h-2.373V415.213L284.922,415.213z M270.692,415.213h2.374v-2.168h-2.374V415.213L270.692,415.213z
	 M275.357,415.213h2.373v-2.168h-2.373V415.213L275.357,415.213z M279.451,415.213h2.374v-2.168h-2.374V415.213L279.451,415.213z
	 M270.701,419.041h16.343v-2.168h-16.343V419.041L270.701,419.041z M279.451,422.633h2.374v-2.168h-2.374V422.633L279.451,422.633z
	 M270.702,422.633h6.727v-2.168h-6.727V422.633L270.702,422.633z M287.355,426.23v-2.168h-2.373v2.168H287.355L287.355,426.23z
	 M277.429,426.23v-2.168h-6.727v2.168H277.429L277.429,426.23z M287.375,430.019v-2.168h-2.374v2.168H287.375L287.375,430.019z
	 M277.449,430.019v-2.168h-6.728v2.168H277.449L277.449,430.019z M279.471,433.616h2.373v-2.168h-2.373V433.616L279.471,433.616z
	 M270.721,433.616h6.728v-2.168h-6.728V433.616L270.721,433.616z M270.701,436.868h16.343V434.7h-16.343V436.868L270.701,436.868z
	 M279.451,440.459h2.374v-2.167h-2.374V440.459L279.451,440.459z M270.702,440.459h6.727v-2.167h-6.727V440.459L270.702,440.459z
	 M244.937,452.107v-2.168h-2.373v2.168H244.937L244.937,452.107z M253.687,452.107v-2.168h-6.727v2.168H253.687L253.687,452.107z
	 M244.957,455.896v-2.168h-2.374v2.168H244.957L244.957,455.896z M253.707,455.896v-2.168h-6.727v2.168H253.707L253.707,455.896z
	 M246.96,466.336h6.727v-2.168h-6.727V466.336L246.96,466.336z M242.505,400.554h2.373v-2.168h-2.373V400.554L242.505,400.554z
	 M247.168,400.554h2.373v-2.168h-2.373V400.554L247.168,400.554z M251.263,400.554h2.373v-2.168h-2.373V400.554L251.263,400.554z
	 M228.275,400.554h2.373v-2.168h-2.373V400.554L228.275,400.554z M232.939,400.554h2.373v-2.168h-2.373V400.554L232.939,400.554z
	 M237.034,400.554h2.373v-2.168h-2.373V400.554L237.034,400.554z M242.505,408.541h2.373v-2.168h-2.373V408.541L242.505,408.541z
	 M247.168,408.541h2.373v-2.168h-2.373V408.541L247.168,408.541z M251.263,408.541h2.373v-2.168h-2.373V408.541L251.263,408.541z
	 M228.275,408.541h2.373v-2.168h-2.373V408.541L228.275,408.541z M232.939,408.541h2.373v-2.168h-2.373V408.541L232.939,408.541z
	 M237.034,408.541h2.373v-2.168h-2.373V408.541L237.034,408.541z M228.283,412.368h16.343V410.2h-16.343V412.368L228.283,412.368z
	 M242.505,416.071h2.373v-2.168h-2.373V416.071L242.505,416.071z M247.168,416.071h2.373v-2.168h-2.373V416.071L247.168,416.071z
	 M251.263,416.071h2.373v-2.168h-2.373V416.071L251.263,416.071z M228.275,416.071h2.373v-2.168h-2.373V416.071L228.275,416.071z
	 M232.939,416.071h2.373v-2.168h-2.373V416.071L232.939,416.071z M237.034,416.071h2.373v-2.168h-2.373V416.071L237.034,416.071z
	 M228.283,419.899h16.343v-2.168h-16.343V419.899L228.283,419.899z M237.034,423.491h2.373v-2.168h-2.373V423.491L237.034,423.491z
	 M228.283,423.491h6.728v-2.168h-6.728V423.491L228.283,423.491z M246.96,423.491h6.727v-2.168h-6.727V423.491L246.96,423.491z
	 M244.937,427.088v-2.168h-2.373v2.168H244.937L244.937,427.088z M253.687,427.088v-2.168h-6.727v2.168H253.687L253.687,427.088z
	 M235.011,427.088v-2.168h-6.728v2.168H235.011L235.011,427.088z M244.957,430.877v-2.168h-2.374v2.168H244.957L244.957,430.877z
	 M253.707,430.877v-2.168h-6.727v2.168H253.707L253.707,430.877z M235.031,430.877v-2.168h-6.727v2.168H235.031L235.031,430.877z
	 M237.054,434.474h2.373v-2.168h-2.373V434.474L237.054,434.474z M228.304,434.474h6.727v-2.168h-6.727V434.474L228.304,434.474z
	 M228.283,437.726h16.343v-2.168h-16.343V437.726L228.283,437.726z M237.034,441.318h2.373v-2.168h-2.373V441.318L237.034,441.318z
	 M228.283,441.318h6.728v-2.168h-6.728V441.318L228.283,441.318z M246.96,441.318h6.727v-2.168h-6.727V441.318L246.96,441.318z
	 M244.937,444.915v-2.168h-2.373v2.168H244.937L244.937,444.915z M253.687,444.915v-2.168h-6.727v2.168H253.687L253.687,444.915z
	 M235.011,444.915v-2.168h-6.728v2.168H235.011L235.011,444.915z M235.011,448.167v-2.168h-6.728v2.168H235.011L235.011,448.167z
	 M253.707,448.167v-2.168h-16.343v2.168H253.707L253.707,448.167z M188.639,462.383h-16.344v2.168h16.344V462.383L188.639,462.383z
	 M174.417,458.224h-2.373v2.168h2.373V458.224L174.417,458.224z M169.753,458.224h-2.373v2.168h2.373V458.224L169.753,458.224z
	 M165.659,458.224h-2.374v2.168h2.374V458.224L165.659,458.224z M188.647,458.224h-2.373v2.168h2.373V458.224L188.647,458.224z
	 M183.983,458.224h-2.373v2.168h2.373V458.224L183.983,458.224z M179.889,458.224h-2.373v2.168h2.373V458.224L179.889,458.224z
	 M188.639,454.396h-16.344v2.168h16.344V454.396L188.639,454.396z M174.417,450.693h-2.373v2.168h2.373V450.693L174.417,450.693z
	 M169.753,450.693h-2.373v2.168h2.373V450.693L169.753,450.693z M165.659,450.693h-2.374v2.168h2.374V450.693L165.659,450.693z
	 M188.647,450.693h-2.373v2.168h2.373V450.693L188.647,450.693z M183.983,450.693h-2.373v2.168h2.373V450.693L183.983,450.693z
	 M179.889,450.693h-2.373v2.168h2.373V450.693L179.889,450.693z M188.639,446.865h-16.344v2.168h16.344V446.865L188.639,446.865z
	 M179.889,443.274h-2.373v2.168h2.373V443.274L179.889,443.274z M188.638,443.274h-6.727v2.168h6.727V443.274L188.638,443.274z
	 M169.962,443.274h-6.727v2.168h6.727V443.274L169.962,443.274z M171.985,439.677v2.168h2.373v-2.168H171.985L171.985,439.677z
	 M163.236,439.677v2.168h6.727v-2.168H163.236L163.236,439.677z M181.911,439.677v2.168h6.727v-2.168H181.911L181.911,439.677z
	 M171.965,435.888v2.168h2.373v-2.168H171.965L171.965,435.888z M163.215,435.888v2.168h6.727v-2.168H163.215L163.215,435.888z
	 M181.891,435.888v2.168h6.727v-2.168H181.891L181.891,435.888z M179.868,432.291h-2.373v2.168h2.373V432.291L179.868,432.291z
	 M188.618,432.291h-6.727v2.168h6.727V432.291L188.618,432.291z M188.639,429.039h-16.344v2.168h16.344V429.039L188.639,429.039z
	 M179.889,425.447h-2.373v2.168h2.373V425.447L179.889,425.447z M188.638,425.447h-6.727v2.168h6.727V425.447L188.638,425.447z
	 M169.962,425.447h-6.727v2.168h6.727V425.447L169.962,425.447z M171.985,421.85v2.168h2.373v-2.168H171.985L171.985,421.85z
	 M163.236,421.85v2.168h6.727v-2.168H163.236L163.236,421.85z M181.911,421.85v2.168h6.727v-2.168H181.911L181.911,421.85z
	 M181.911,418.598v2.168h6.727v-2.168H181.911z"/>
<path fill="#B0DFFF" d="M315.394,474.411v-24.158V448.7h2.246h35.355h2.246v1.552v24.158h-4.491v-22.606h-30.865v22.606h-4.491
	V474.411z M336.068,474.638h2.897v-4.774h-2.897V474.638L336.068,474.638z M332.169,474.638h2.897v-4.774h-2.897V474.638
	L332.169,474.638z M308.557,467.81v-3.08h3.77v-3.029h-3.77v-2.848h3.77v-3.029h-3.77V453h3.77v-3.029h-3.77v-2.823h13.611v-3.029
	h-13.611v-2.273h13.649v-3.104h-15.895h-2.245v1.552v34.118h4.491v-3.572h3.77v-3.029h-3.77V467.81z M352.777,444.273h2.675v2.413
	h-2.675V444.273L352.777,444.273z M339.453,444.273c0.891,0,1.783,0,2.674,0c0,0.804,0,1.609,0,2.413c-0.891,0-1.783,0-2.674,0
	C339.453,445.882,339.453,445.077,339.453,444.273L339.453,444.273z M343.895,444.273c0.891,0,1.783,0,2.674,0
	c0,0.804,0,1.609,0,2.413c-0.891,0-1.783,0-2.674,0C343.895,445.882,343.895,445.077,343.895,444.273L343.895,444.273z
	 M348.336,444.273c0.891,0,1.783,0,2.674,0c0,0.804,0,1.609,0,2.413c-0.891,0-1.783,0-2.674,0
	C348.336,445.882,348.336,445.077,348.336,444.273L348.336,444.273z M352.777,440.345h2.675v2.413h-2.675V440.345L352.777,440.345z
	 M339.453,440.345c0.891,0,1.783,0,2.674,0c0,0.805,0,1.609,0,2.413c-0.891,0-1.783,0-2.674,0
	C339.453,441.954,339.453,441.15,339.453,440.345L339.453,440.345z M343.895,440.345c0.891,0,1.783,0,2.674,0
	c0,0.805,0,1.609,0,2.413c-0.891,0-1.783,0-2.674,0C343.895,441.954,343.895,441.15,343.895,440.345L343.895,440.345z
	 M348.336,440.345c0.891,0,1.783,0,2.674,0c0,0.805,0,1.609,0,2.413c-0.891,0-1.783,0-2.674,0
	C348.336,441.954,348.336,441.15,348.336,440.345L348.336,440.345z M323.1,462.266v2.413h2.674v-2.413H323.1L323.1,462.266z
	 M345.309,466.193v2.414h2.674v-2.414H345.309L345.309,466.193z M327.542,466.193c0,0.805,0,1.609,0,2.414c0.891,0,1.783,0,2.674,0
	c0-0.805,0-1.609,0-2.414C329.325,466.193,328.434,466.193,327.542,466.193L327.542,466.193z M331.984,466.193
	c0,0.805,0,1.609,0,2.414c0.891,0,1.783,0,2.674,0c0-0.805,0-1.609,0-2.414C333.767,466.193,332.876,466.193,331.984,466.193
	L331.984,466.193z M336.427,466.193c0,0.805,0,1.609,0,2.414c0.891,0,1.783,0,2.673,0c0-0.805,0-1.609,0-2.414
	C338.209,466.193,337.318,466.193,336.427,466.193L336.427,466.193z M340.868,466.193c0,0.805,0,1.609,0,2.414
	c0.891,0,1.783,0,2.674,0c0-0.805,0-1.609,0-2.414C342.65,466.193,341.759,466.193,340.868,466.193L340.868,466.193z M323.1,466.193
	v2.414h2.674v-2.414H323.1L323.1,466.193z M345.309,462.266v2.413h2.674v-2.413H345.309L345.309,462.266z M327.542,462.266
	c0,0.804,0,1.609,0,2.413c0.891,0,1.783,0,2.674,0c0-0.804,0-1.609,0-2.413C329.325,462.266,328.434,462.266,327.542,462.266
	L327.542,462.266z M331.984,462.266c0,0.804,0,1.609,0,2.413c0.891,0,1.783,0,2.674,0c0-0.804,0-1.609,0-2.413
	C333.767,462.266,332.876,462.266,331.984,462.266L331.984,462.266z M336.427,462.266c0,0.804,0,1.609,0,2.413
	c0.891,0,1.783,0,2.673,0c0-0.804,0-1.609,0-2.413C338.209,462.266,337.318,462.266,336.427,462.266L336.427,462.266z
	 M340.868,462.266c0,0.804,0,1.609,0,2.413c0.891,0,1.783,0,2.674,0c0-0.804,0-1.609,0-2.413
	C342.65,462.266,341.759,462.266,340.868,462.266L340.868,462.266z M323.1,454.154v2.413h2.674v-2.413H323.1L323.1,454.154z
	 M345.309,458.082v2.413h2.674v-2.413H345.309L345.309,458.082z M327.542,458.082c0,0.804,0,1.609,0,2.413c0.891,0,1.783,0,2.674,0
	c0-0.804,0-1.609,0-2.413C329.325,458.082,328.434,458.082,327.542,458.082L327.542,458.082z M331.984,458.082
	c0,0.804,0,1.609,0,2.413c0.891,0,1.783,0,2.674,0c0-0.804,0-1.609,0-2.413C333.767,458.082,332.876,458.082,331.984,458.082
	L331.984,458.082z M336.427,458.082c0,0.804,0,1.609,0,2.413c0.891,0,1.783,0,2.673,0c0-0.804,0-1.609,0-2.413
	C338.209,458.082,337.318,458.082,336.427,458.082L336.427,458.082z M340.868,458.082c0,0.804,0,1.609,0,2.413
	c0.891,0,1.783,0,2.674,0c0-0.804,0-1.609,0-2.413C342.65,458.082,341.759,458.082,340.868,458.082L340.868,458.082z M323.1,458.082
	v2.413h2.674v-2.413H323.1L323.1,458.082z M345.309,454.154v2.413h2.674v-2.413H345.309L345.309,454.154z M327.542,454.154
	c0,0.804,0,1.609,0,2.413c0.891,0,1.783,0,2.674,0c0-0.804,0-1.609,0-2.413C329.325,454.154,328.434,454.154,327.542,454.154
	L327.542,454.154z M331.984,454.154c0,0.804,0,1.609,0,2.413c0.891,0,1.783,0,2.674,0c0-0.804,0-1.609,0-2.413
	C333.767,454.154,332.876,454.154,331.984,454.154L331.984,454.154z M336.427,454.154c0,0.804,0,1.609,0,2.413
	c0.891,0,1.783,0,2.673,0c0-0.804,0-1.609,0-2.413C338.209,454.154,337.318,454.154,336.427,454.154L336.427,454.154z
	 M340.868,454.154c0,0.804,0,1.609,0,2.413c0.891,0,1.783,0,2.674,0c0-0.804,0-1.609,0-2.413
	C342.65,454.154,341.759,454.154,340.868,454.154L340.868,454.154z M327.068,446.864h8.983v-8.19h23.401v35.736h8.983v-38.84v-3.104
	h-4.491H331.56h-4.491v3.104v11.294H327.068z"/>
<path fill="#B0DFFF" d="M418.627,479.545h4.872h51.52v-77.196l-17.525-5.993l-38.868,5.233v17.008l-8.584-2.936l-29.85,4.019v59.865
	L418.627,479.545L418.627,479.545z M384.532,424.258c2.324-0.228,4.671-0.458,7.039-0.691c2.39-0.235,4.805-0.472,7.242-0.711
	c0,0.982,0,1.96,0,2.931c-2.437,0.225-4.851,0.449-7.242,0.67c-2.368,0.219-4.714,0.436-7.039,0.651
	C384.532,426.165,384.532,425.214,384.532,424.258L384.532,424.258z M424.275,407.551c3.027-0.298,6.083-0.597,9.168-0.9
	c3.114-0.305,6.255-0.614,9.429-0.926c0,1.279,0,2.552,0,3.818c-3.173,0.293-6.315,0.584-9.429,0.871
	c-3.085,0.285-6.141,0.568-9.168,0.849C424.275,410.032,424.275,408.795,424.275,407.551L424.275,407.551z M446.052,467.504
	c1.681-0.01,3.375-0.019,5.079-0.029c0,1.289,0,2.571,0,3.845c-1.704,0-3.398,0-5.079,0
	C446.052,470.055,446.052,468.783,446.052,467.504L446.052,467.504z M424.275,467.629c3.027-0.018,6.083-0.036,9.168-0.053
	c3.112-0.017,6.255-0.034,9.432-0.053c0,1.273,0,2.539,0,3.798c-3.177,0-6.318,0-9.432,0c-3.085,0-6.141,0-9.168,0
	C424.275,470.096,424.275,468.865,424.275,467.629L424.275,467.629z M429.023,460.984c0,1.245,0,2.487,0,3.725
	c-1.593,0.017-3.175,0.032-4.748,0.048c0-1.23,0-2.461,0-3.698C425.848,461.035,427.431,461.01,429.023,460.984L429.023,460.984z
	 M451.13,460.636c0,1.288,0,2.57,0,3.851c-3.256,0.033-6.479,0.066-9.667,0.098c-3.161,0.031-6.291,0.062-9.39,0.095
	c0-1.245,0-2.492,0-3.744c3.1-0.048,6.23-0.099,9.39-0.148C444.651,460.738,447.875,460.686,451.13,460.636L451.13,460.636z
	 M451.182,454.358c0,1.289,0,2.57,0,3.852c-1.702,0.033-3.398,0.066-5.08,0.098c0-1.272,0-2.544,0-3.822
	C447.784,454.444,449.48,454.402,451.182,454.358L451.182,454.358z M443.196,454.559c0.003,1.273,0.003,2.54,0.003,3.807
	c-1.665,0.032-3.319,0.064-4.959,0.096c0-1.257,0-2.514,0-3.778C439.88,454.642,441.534,454.601,443.196,454.559L443.196,454.559z
	 M436.67,448.296c0,1.261,0,2.514,0,3.769c-1.631,0.048-3.251,0.095-4.864,0.141c0-1.244,0-2.49,0-3.741
	C433.419,448.408,435.038,448.352,436.67,448.296L436.67,448.296z M429.023,448.561c0,1.246,0,2.487,0,3.726
	c-1.593,0.046-3.175,0.092-4.748,0.138c0-1.231,0-2.462,0-3.699C425.848,448.672,427.431,448.617,429.023,448.561L429.023,448.561z
	 M429.023,442.081c0,1.246,0,2.485,0,3.725c-1.593,0.062-3.175,0.124-4.748,0.185c0-1.232,0-2.461,0-3.698
	C425.848,442.223,427.431,442.152,429.023,442.081L429.023,442.081z M451.13,441.092c0,1.288,0,2.57,0,3.851
	c-3.256,0.127-6.479,0.253-9.667,0.377c-3.161,0.123-6.291,0.246-9.39,0.367c0-1.246,0-2.492,0-3.743
	c3.1-0.139,6.23-0.279,9.39-0.42C444.651,441.382,447.875,441.238,451.13,441.092L451.13,441.092z M446.052,434.524
	c1.681-0.092,3.375-0.185,5.079-0.278c0,1.288,0,2.57,0,3.851c-1.704,0.083-3.398,0.167-5.079,0.249
	C446.052,437.075,446.052,435.803,446.052,434.524L446.052,434.524z M424.275,435.718c3.027-0.166,6.083-0.334,9.168-0.503
	c3.114-0.17,6.255-0.343,9.429-0.517c0,1.273,0,2.538,0,3.804c-3.173,0.156-6.315,0.31-9.429,0.463
	c-3.085,0.151-6.141,0.301-9.168,0.45C424.275,438.186,424.275,436.955,424.275,435.718L424.275,435.718z M448.469,427.063
	c0,1.283,0,2.56,0,3.837c-1.684,0.101-3.367,0.201-5.037,0.301c0-1.267,0-2.533,0-3.808
	C445.102,427.284,446.785,427.174,448.469,427.063L448.469,427.063z M436.67,427.838c0,1.261,0,2.514,0,3.77
	c-1.631,0.098-3.251,0.195-4.864,0.292c0-1.245,0-2.49,0-3.742C433.419,428.052,435.038,427.945,436.67,427.838L436.67,427.838z
	 M429.023,428.34c0,1.247,0,2.486,0,3.726c-1.593,0.096-3.175,0.19-4.748,0.285c0-1.23,0-2.461,0-3.699
	C425.848,428.549,427.431,428.445,429.023,428.34L429.023,428.34z M451.557,419.006c0,1.289,0,2.571,0,3.853
	c-1.707,0.122-3.402,0.244-5.088,0.365c0-1.273,0-2.546,0-3.826C448.155,419.269,449.85,419.138,451.557,419.006L451.557,419.006z
	 M439.645,419.927c0,1.266,0,2.526,0,3.785c-1.647,0.118-3.28,0.235-4.909,0.352c0-1.251,0-2.501,0-3.758
	C436.365,420.181,437.998,420.054,439.645,419.927L439.645,419.927z M429.023,420.748c0,1.247,0,2.486,0,3.726
	c-1.593,0.115-3.175,0.227-4.748,0.34c0-1.231,0-2.461,0-3.699C425.848,420.993,427.431,420.871,429.023,420.748L429.023,420.748z
	 M429.023,413.714c0,1.246,0,2.486,0,3.726c-1.593,0.132-3.175,0.262-4.748,0.392c0-1.231,0-2.461,0-3.699
	C425.848,413.994,427.431,413.854,429.023,413.714L429.023,413.714z M451.13,411.768c0,1.288,0,2.57,0,3.851
	c-3.256,0.268-6.479,0.534-9.667,0.797c-3.162,0.259-6.291,0.517-9.39,0.773c0-1.245,0-2.491,0-3.743
	c3.1-0.273,6.228-0.549,9.39-0.827C444.651,412.338,447.875,412.055,451.13,411.768L451.13,411.768z M446.052,405.414
	c1.681-0.165,3.375-0.331,5.079-0.499c0,1.295,0,2.583,0,3.865c-1.704,0.158-3.398,0.314-5.079,0.47
	C446.052,407.977,446.052,406.699,446.052,405.414L446.052,405.414z M401.256,470.298c1.289-0.007,2.59-0.015,3.897-0.022
	c0,0.989,0,1.973,0,2.952c-1.307,0-2.608,0-3.897,0C401.256,472.257,401.256,471.28,401.256,470.298L401.256,470.298z
	 M384.532,470.393c2.324-0.013,4.671-0.027,7.039-0.04c2.39-0.013,4.805-0.027,7.243-0.041c0,0.977,0,1.949,0,2.916
	c-2.439,0-4.853,0-7.243,0c-2.368,0-4.714,0-7.039,0C384.532,472.289,384.532,471.343,384.532,470.393L384.532,470.393z
	 M388.178,465.292c0,0.957,0,1.909,0,2.861c-1.225,0.013-2.44,0.025-3.646,0.037c0-0.945,0-1.89,0-2.841
	C385.738,465.33,386.953,465.311,388.178,465.292L388.178,465.292z M405.153,465.024c0,0.989,0,1.974,0,2.958
	c-2.498,0.025-4.974,0.05-7.422,0.075c-2.429,0.025-4.83,0.049-7.213,0.073c0-0.956,0-1.913,0-2.875
	c2.382-0.037,4.784-0.075,7.213-0.114C400.179,465.103,402.655,465.063,405.153,465.024L405.153,465.024z M405.192,460.204
	c0,0.989,0,1.974,0,2.958c-1.306,0.025-2.608,0.051-3.9,0.075c0-0.977,0-1.953,0-2.935
	C402.584,460.269,403.886,460.237,405.192,460.204L405.192,460.204z M399.061,460.357c0.003,0.978,0.003,1.951,0.003,2.923
	c-1.28,0.025-2.548,0.05-3.81,0.073c0-0.965,0-1.931,0-2.901C396.516,460.421,397.784,460.39,399.061,460.357L399.061,460.357z
	 M394.05,455.548c0,0.969,0,1.931,0,2.895c-1.252,0.036-2.497,0.072-3.734,0.108c0-0.956,0-1.912,0-2.873
	C391.553,455.635,392.797,455.592,394.05,455.548L394.05,455.548z M388.178,455.752c0,0.957,0,1.909,0,2.861
	c-1.225,0.036-2.44,0.071-3.646,0.106c0-0.945,0-1.891,0-2.84C385.738,455.837,386.953,455.794,388.178,455.752L388.178,455.752z
	 M388.178,450.774c0,0.957,0,1.909,0,2.861c-1.225,0.048-2.44,0.096-3.646,0.143c0-0.945,0-1.89,0-2.84
	C385.738,450.884,386.953,450.83,388.178,450.774L388.178,450.774z M405.153,450.016c0,0.989,0,1.974,0,2.958
	c-2.498,0.098-4.974,0.195-7.422,0.29c-2.429,0.095-4.83,0.188-7.213,0.282c0-0.957,0-1.914,0-2.874
	c2.382-0.107,4.784-0.214,7.213-0.323C400.179,450.239,402.655,450.128,405.153,450.016L405.153,450.016z M401.256,444.971
	c1.289-0.07,2.59-0.141,3.897-0.213c0,0.99,0,1.974,0,2.958c-1.307,0.064-2.608,0.129-3.897,0.191
	C401.256,446.931,401.256,445.954,401.256,444.971L401.256,444.971z M384.532,445.889c2.324-0.128,4.671-0.256,7.039-0.387
	c2.39-0.13,4.805-0.264,7.242-0.397c0,0.977,0,1.949,0,2.921c-2.437,0.12-4.851,0.238-7.242,0.355
	c-2.368,0.117-4.714,0.233-7.039,0.346C384.532,447.784,384.532,446.839,384.532,445.889L384.532,445.889z M403.111,439.242
	c0,0.986,0,1.966,0,2.947c-1.294,0.078-2.587,0.155-3.867,0.232c0-0.973,0-1.946,0-2.924
	C400.524,439.412,401.817,439.328,403.111,439.242L403.111,439.242z M394.05,439.837c0,0.969,0,1.931,0,2.895
	c-1.252,0.075-2.497,0.149-3.734,0.224c0-0.956,0-1.912,0-2.873C391.553,440.002,392.797,439.919,394.05,439.837L394.05,439.837z
	 M388.178,440.224c0,0.956,0,1.908,0,2.861c-1.225,0.073-2.44,0.146-3.646,0.219c0-0.945,0-1.89,0-2.84
	C385.738,440.384,386.953,440.304,388.178,440.224L388.178,440.224z M405.482,433.055c0,0.99,0,1.975,0,2.959
	c-1.312,0.094-2.611,0.187-3.907,0.28c0-0.978,0-1.955,0-2.938C402.871,433.257,404.17,433.157,405.482,433.055L405.482,433.055z
	 M396.334,433.762c0,0.973,0,1.94,0,2.908c-1.264,0.09-2.518,0.18-3.768,0.27c0-0.96,0-1.921,0-2.885
	C393.816,433.957,395.07,433.86,396.334,433.762L396.334,433.762z M388.178,434.393c0,0.957,0,1.91,0,2.861
	c-1.225,0.088-2.44,0.175-3.646,0.262c0-0.946,0-1.891,0-2.841C385.738,434.582,386.953,434.487,388.178,434.393L388.178,434.393z
	 M388.178,428.991c0,0.957,0,1.909,0,2.861c-1.225,0.101-2.44,0.202-3.646,0.301c0-0.945,0-1.89,0-2.84
	C385.738,429.206,386.953,429.099,388.178,428.991L388.178,428.991z M405.153,427.497c0,0.989,0,1.973,0,2.958
	c-2.498,0.206-4.974,0.409-7.422,0.611c-2.429,0.199-4.83,0.398-7.213,0.594c0-0.957,0-1.913,0-2.874
	c2.382-0.211,4.784-0.422,7.213-0.636C400.179,427.935,402.655,427.717,405.153,427.497L405.153,427.497z M401.256,422.617
	c1.289-0.127,2.59-0.255,3.897-0.383c0,0.994,0,1.984,0,2.968c-1.307,0.121-2.608,0.242-3.897,0.361
	C401.256,424.586,401.256,423.604,401.256,422.617z"/>
<path fill="#B0DFFF" d="M65.588,478.245h10.065h36.513h3.979h39.088h9.128v-4.207h-9.128v-34.782h-39.088V418.71H75.653v55.328
	H65.588V478.245L65.588,478.245z M120.002,448.781c9.635,0,19.271,0,28.906,0c0,0.862,0,1.726,0,2.588c-9.635,0-19.271,0-28.906,0
	C120.002,450.507,120.002,449.644,120.002,448.781L120.002,448.781z M88.308,465.442c0.993,0,1.986,0,2.979,0
	c0,1.032,0,2.064,0,3.096c-0.993,0-1.986,0-2.979,0C88.308,467.507,88.308,466.474,88.308,465.442L88.308,465.442z M82.566,465.442
	h2.979v3.096h-2.979L82.566,465.442L82.566,465.442z M94.049,465.442c0.993,0,1.986,0,2.979,0c0,1.032,0,2.064,0,3.096
	c-0.993,0-1.986,0-2.979,0C94.049,467.507,94.049,466.474,94.049,465.442L94.049,465.442z M99.791,465.442c0.994,0,1.986,0,2.979,0
	c0,1.032,0,2.064,0,3.096c-0.993,0-1.986,0-2.979,0C99.791,467.507,99.791,466.474,99.791,465.442L99.791,465.442z M105.532,465.442
	h2.979v3.096h-2.979V465.442L105.532,465.442z M88.308,430.529c0.994,0,1.986,0,2.979,0c0,1.033,0,2.064,0,3.097
	c-0.992,0-1.985,0-2.979,0C88.308,432.594,88.308,431.562,88.308,430.529L88.308,430.529z M82.566,430.529c0.993,0,1.986,0,2.979,0
	c0,1.033,0,2.064,0,3.097c-0.993,0-1.986,0-2.979,0C82.566,432.594,82.566,431.562,82.566,430.529L82.566,430.529z M94.05,430.529
	c0.993,0,1.986,0,2.979,0c0,1.033,0,2.064,0,3.097c-0.994,0-1.986,0-2.979,0C94.05,432.594,94.05,431.562,94.05,430.529
	L94.05,430.529z M99.792,430.529c0.993,0,1.986,0,2.979,0c0,1.033,0,2.064,0,3.097c-0.993,0-1.986,0-2.979,0
	C99.792,432.594,99.792,431.562,99.792,430.529L99.792,430.529z M105.533,430.529c0.994,0,1.986,0,2.979,0c0,1.033,0,2.064,0,3.097
	c-0.993,0-1.986,0-2.979,0C105.533,432.594,105.533,431.562,105.533,430.529L105.533,430.529z M88.308,437.511
	c0.994,0,1.986,0,2.979,0c0,1.032,0,2.065,0,3.097c-0.992,0-1.985,0-2.979,0C88.308,439.576,88.308,438.544,88.308,437.511
	L88.308,437.511z M82.566,437.511c0.993,0,1.986,0,2.979,0c0,1.032,0,2.065,0,3.097c-0.993,0-1.986,0-2.979,0
	C82.566,439.576,82.566,438.544,82.566,437.511L82.566,437.511z M94.05,437.511c0.993,0,1.986,0,2.979,0c0,1.032,0,2.065,0,3.097
	c-0.994,0-1.986,0-2.979,0C94.05,439.576,94.05,438.544,94.05,437.511L94.05,437.511z M99.792,437.511c0.993,0,1.986,0,2.979,0
	c0,1.032,0,2.065,0,3.097c-0.993,0-1.986,0-2.979,0C99.792,439.576,99.792,438.544,99.792,437.511L99.792,437.511z M105.533,437.511
	c0.994,0,1.986,0,2.979,0c0,1.032,0,2.065,0,3.097c-0.993,0-1.986,0-2.979,0C105.533,439.576,105.533,438.544,105.533,437.511
	L105.533,437.511z M88.308,444.495c0.994,0,1.986,0,2.979,0c0,1.032,0,2.064,0,3.096c-0.992,0-1.985,0-2.979,0
	C88.308,446.559,88.308,445.526,88.308,444.495L88.308,444.495z M82.566,444.495c0.993,0,1.986,0,2.979,0c0,1.032,0,2.064,0,3.096
	c-0.993,0-1.986,0-2.979,0C82.566,446.559,82.566,445.526,82.566,444.495L82.566,444.495z M94.05,444.495c0.993,0,1.986,0,2.979,0
	c0,1.032,0,2.064,0,3.096c-0.994,0-1.986,0-2.979,0C94.05,446.559,94.05,445.526,94.05,444.495L94.05,444.495z M99.792,444.495
	c0.993,0,1.986,0,2.979,0c0,1.032,0,2.064,0,3.096c-0.993,0-1.986,0-2.979,0C99.792,446.559,99.792,445.526,99.792,444.495
	L99.792,444.495z M105.533,444.495c0.994,0,1.986,0,2.979,0c0,1.032,0,2.064,0,3.096c-0.993,0-1.986,0-2.979,0
	C105.533,446.559,105.533,445.526,105.533,444.495L105.533,444.495z M88.308,451.477c0.994,0,1.986,0,2.979,0
	c0,1.032,0,2.064,0,3.096c-0.992,0-1.985,0-2.979,0C88.308,453.542,88.308,452.509,88.308,451.477L88.308,451.477z M82.566,451.477
	c0.993,0,1.986,0,2.979,0c0,1.032,0,2.064,0,3.096c-0.993,0-1.986,0-2.979,0C82.566,453.542,82.566,452.509,82.566,451.477
	L82.566,451.477z M94.05,451.477c0.993,0,1.986,0,2.979,0c0,1.032,0,2.064,0,3.096c-0.994,0-1.986,0-2.979,0
	C94.05,453.542,94.05,452.509,94.05,451.477L94.05,451.477z M99.792,451.477c0.993,0,1.986,0,2.979,0c0,1.032,0,2.064,0,3.096
	c-0.993,0-1.986,0-2.979,0C99.792,453.542,99.792,452.509,99.792,451.477L99.792,451.477z M105.533,451.477c0.994,0,1.986,0,2.979,0
	c0,1.032,0,2.064,0,3.096c-0.993,0-1.986,0-2.979,0C105.533,453.542,105.533,452.509,105.533,451.477L105.533,451.477z
	 M88.308,458.46c0.994,0,1.986,0,2.979,0c0,1.032,0,2.065,0,3.096c-0.992,0-1.985,0-2.979,0
	C88.308,460.524,88.308,459.492,88.308,458.46L88.308,458.46z M82.566,458.46c0.993,0,1.986,0,2.979,0c0,1.032,0,2.065,0,3.096
	c-0.993,0-1.986,0-2.979,0C82.566,460.524,82.566,459.492,82.566,458.46L82.566,458.46z M94.05,458.46c0.993,0,1.986,0,2.979,0
	c0,1.032,0,2.065,0,3.096c-0.994,0-1.986,0-2.979,0C94.05,460.524,94.05,459.492,94.05,458.46L94.05,458.46z M99.792,458.46
	c0.993,0,1.986,0,2.979,0c0,1.032,0,2.065,0,3.096c-0.993,0-1.986,0-2.979,0C99.792,460.524,99.792,459.492,99.792,458.46
	L99.792,458.46z M105.533,458.46c0.994,0,1.986,0,2.979,0c0,1.032,0,2.065,0,3.096c-0.993,0-1.986,0-2.979,0
	C105.533,460.524,105.533,459.492,105.533,458.46L105.533,458.46z M88.308,423.547c0.993,0,1.986,0,2.979,0c0,1.033,0,2.064,0,3.097
	c-0.993,0-1.986,0-2.979,0C88.308,425.611,88.308,424.579,88.308,423.547L88.308,423.547z M82.566,423.547h2.979v3.097h-2.979
	L82.566,423.547L82.566,423.547z M94.049,423.547c0.993,0,1.986,0,2.979,0c0,1.033,0,2.064,0,3.097c-0.993,0-1.986,0-2.979,0
	C94.049,425.611,94.049,424.579,94.049,423.547L94.049,423.547z M99.791,423.547c0.994,0,1.986,0,2.979,0c0,1.033,0,2.064,0,3.097
	c-0.993,0-1.986,0-2.979,0C99.791,425.611,99.791,424.579,99.791,423.547L99.791,423.547z M105.532,423.547h2.979v3.097h-2.979
	V423.547L105.532,423.547z M120.001,443.058h28.907v2.589h-28.907L120.001,443.058L120.001,443.058z M120.002,454.504
	c9.635,0,19.271,0,28.906,0c0,0.862,0,1.726,0,2.589c-9.635,0-19.271,0-28.906,0C120.002,456.23,120.002,455.366,120.002,454.504
	L120.002,454.504z M120.002,460.227c9.635,0,19.271,0,28.906,0c0,0.863,0,1.726,0,2.589c-9.635,0-19.271,0-28.906,0
	C120.002,461.953,120.002,461.09,120.002,460.227L120.002,460.227z M120.001,465.95h28.907v2.589h-28.907
	C120.001,468.539,120.001,465.95,120.001,465.95z"/>
<path fill="#B0DFFF" d="M504.783,429.082h2.131v5.211c3.165,4.805,11.7,17.259,19.032,23.433l2.194,1.672
	c1.128,0.764,2.21,1.331,3.212,1.64c1.062,0.325,2.094,0.272,3.075-0.05c0.812-0.267,1.615-0.711,2.397-1.283v-9.211
	c-1.894,2.795-4.431,5.887-7.48,8.097l-2.082-1.752c4.713-3.539,8.265-10.083,9.563-12.707v-0.78h0.376
	c0.105-0.223,0.161-0.348,0.161-0.352l1.659,0.352h1.642v0.349l0.016,0.003l-0.016,0.032v0.648h6.115v-1.032h3.839v21.821h5.789
	l0.052,1.47l-5.841,0.404v9.701h-3.839v-9.436l-6.115,0.422v8.06h-3.838v-7.795l-29.909,2.066v5.781h-6.21v-5.352l-9.891,0.683
	v3.238h-6.21v-2.809l-17.004,1.174l-0.363-7.607h17.367v-16.31c-3.423,2.02-7.068,3.808-10.963,5.328l-1.697-2.084
	c6.347-2.476,12.004-5.712,17.125-9.533C493.726,438.84,499.387,434.2,504.783,429.082L504.783,429.082z M506.914,439.905v9.784
	c2.06,2.261,4.197,4.347,6.315,5.997c2.057,1.604,4.058,2.778,5.88,3.256c0.619,0.163,1.23,0.245,1.833,0.256l2.526,2.129
	c-1.76,0.373-3.626,0.373-5.581-0.141c-2.385-0.627-4.837-2.031-7.251-3.913c-1.244-0.971-2.492-2.076-3.72-3.269v11.168h29.909
	v-2.363c-0.3,0.129-0.604,0.245-0.916,0.348c-1.874,0.615-3.866,0.71-5.955,0.069c-1.367-0.42-2.83-1.219-4.342-2.29l-2.804-2.236
	C517.003,453.606,510.901,445.572,506.914,439.905L506.914,439.905z M490.812,444.783v1.822h9.891v-5.929h-4.697
	c-1.423,1.218-2.887,2.394-4.4,3.523C491.344,444.394,491.08,444.589,490.812,444.783L490.812,444.783z M497.899,439.006h2.805
	v-2.654C499.786,437.256,498.853,438.141,497.899,439.006L497.899,439.006z M540.661,455.806c0.151-0.195,0.298-0.393,0.445-0.592
	h-0.445V455.806L540.661,455.806z M541.828,454.182c0.832-1.233,1.567-2.493,2.199-3.665h-3.365v3.665H541.828L541.828,454.182z
	 M544.566,449.486c0.906-1.781,1.526-3.25,1.807-3.942h-5.712v3.942H544.566L544.566,449.486z M546.776,452.244
	c-0.358,0.633-0.745,1.284-1.157,1.938h1.157V452.244L546.776,452.244z M544.945,455.214c-1.086,1.61-2.331,3.192-3.707,4.528h5.538
	v-4.528H544.945L544.945,455.214z M484.602,435.495v7.601c1.21-0.8,2.393-1.632,3.547-2.493c0.903-0.674,1.791-1.367,2.663-2.078
	v-5.896h6.512c0.619-0.617,1.227-1.242,1.828-1.876h-8.339v-1.67h-6.21v2.387c-2.063,2.095-4.273,3.921-6.668,5.532
	c-3.156,2.121-6.641,3.882-10.551,5.407l1.695,2.085c4.187-1.633,7.911-3.513,11.273-5.774
	C481.836,437.721,483.25,436.65,484.602,435.495L484.602,435.495z M546.776,460.774h-6.115v4.399h6.115V460.774L546.776,460.774z
	 M500.703,465.173v-7.902h-9.891v7.902H500.703L500.703,465.173z M490.812,448.274v7.327h9.891v-7.327H490.812z"/>
<path fill="#B0DFFF" d="M596.244,436.026h7.743v-6.682h3.452v-4.232l10.67-7.9l10.544,7.9v4.232h3.452v6.682h6.853v41.717h-42.715
	L596.244,436.026L596.244,436.026z M553.827,423.059h4.166v-7.071l12.338-7.656v-5.986h3.454v5.925l12.328,7.716
	c0,2.357,0,4.714,0,7.071h3.934v54.684h-36.221L553.827,423.059L553.827,423.059z M562.951,420.334v2.188h17.765v-2.188H562.951
	L562.951,420.334z M562.951,416.603v2.187h17.765v-2.187H562.951L562.951,416.603z M557.779,426.869v2.187h29.12v-2.187H557.779
	L557.779,426.869z M557.779,430.988v2.187h11.352v-2.187H557.779L557.779,430.988z M575.488,430.988v2.187h11.353v-2.187H575.488
	L575.488,430.988z M557.779,435.184v2.187h11.352v-2.187H557.779L557.779,435.184z M575.488,435.184v2.187h11.353v-2.187H575.488
	L575.488,435.184z M557.779,439.345v2.187h5.677v-2.187H557.779L557.779,439.345z M567.672,439.345v2.187h11.353v-2.187H567.672
	L567.672,439.345z M582.513,439.345v2.187h4.384v-2.187H582.513L582.513,439.345z M557.779,443.923v2.188h5.677v-2.188H557.779
	L557.779,443.923z M563.345,443.923v2.188h11.352v-2.188H563.345L563.345,443.923z M582.513,443.923v2.188h4.384v-2.188H582.513
	L582.513,443.923z M557.779,448.315v2.187h11.352v-2.187H557.779L557.779,448.315z M575.488,448.315v2.187h11.353v-2.187H575.488
	L575.488,448.315z M557.779,452.476v2.187h5.677v-2.187H557.779L557.779,452.476z M567.672,452.476v2.187h11.353v-2.187H567.672
	L567.672,452.476z M582.513,452.476v2.187h4.384v-2.187H582.513L582.513,452.476z M557.779,457.054v2.187h5.677v-2.187H557.779
	L557.779,457.054z M563.345,457.054v2.187h11.352v-2.187H563.345L563.345,457.054z M582.513,457.054v2.187h4.384v-2.187H582.513
	L582.513,457.054z M602.814,440.271v2.187h7.927v-2.187H602.814L602.814,440.271z M614.061,440.271v2.187h7.923v-2.187H614.061
	L614.061,440.271z M624.853,440.271v2.187h7.925v-2.187H624.853L624.853,440.271z M602.814,445.712v2.187h7.927v-2.187H602.814
	L602.814,445.712z M614.061,445.712v2.187h7.923v-2.187H614.061L614.061,445.712z M624.853,445.712v2.187h7.925v-2.187H624.853
	L624.853,445.712z M602.814,450.84v2.187h7.927v-2.187H602.814L602.814,450.84z M614.061,450.84v2.187h7.923v-2.187H614.061
	L614.061,450.84z M624.853,450.84v2.187h7.925v-2.187H624.853L624.853,450.84z M602.814,455.741v2.187h7.927v-2.187H602.814
	L602.814,455.741z M614.061,455.741v2.187h7.923v-2.187H614.061L614.061,455.741z M624.853,455.741v2.187h7.925v-2.187H624.853
	L624.853,455.741z M602.814,461.182v2.187h7.927v-2.187H602.814L602.814,461.182z M614.061,461.182v2.187h7.923v-2.187H614.061
	L614.061,461.182z M624.853,461.182v2.187h7.925v-2.187H624.853L624.853,461.182z M602.814,466.31v2.188h7.927v-2.188H602.814
	L602.814,466.31z M614.061,466.31v2.188h7.923v-2.188H614.061L614.061,466.31z M624.853,466.31v2.188h7.925v-2.188H624.853
	L624.853,466.31z M607.304,431.337v2.798h2.215v-2.798H607.304L607.304,431.337z M612.062,431.337v2.798h2.216v-2.798H612.062
	L612.062,431.337z M616.797,431.337v2.798h2.215v-2.798H616.797L616.797,431.337z M621.555,431.337v2.798h2.215v-2.798H621.555
	L621.555,431.337z M626.286,431.337v2.798h2.215v-2.798H626.286L626.286,431.337z M557.779,461.526v2.188h5.677v-2.188H557.779
	L557.779,461.526z M563.345,461.526v2.188h11.352v-2.188H563.345L563.345,461.526z M582.513,461.526v2.188h4.384v-2.188H582.513
	L582.513,461.526z M557.779,465.918v2.187h11.352v-2.187H557.779L557.779,465.918z M575.488,465.918v2.187h11.353v-2.187H575.488
	L575.488,465.918z M557.779,470.078v2.187h5.677v-2.187H557.779L557.779,470.078z M567.672,470.078v2.187h11.353v-2.187H567.672
	L567.672,470.078z M582.513,470.078v2.187h4.384v-2.187H582.513z"/>
<path fill="#B0DFFF" d="M72.027,475.212h-18.3v-7.469h-7.824v7.469h-6.378v-8.281v-2.952v-6.239h-2.288v-2.255l7.647-5.389
	l10.848-7.644l10.849,7.644l7.66,5.398v2.246h-2.213v6.239v2.952L72.027,475.212L72.027,475.212z M28.93,467.836h-5.611v4.447h5.611
	V467.836L28.93,467.836z M20.66,457.463h-3.664v2.904h3.664V457.463L20.66,457.463z M13.802,467.836H8.191v4.447h5.611V467.836
	L13.802,467.836z M21.14,467.836h-5.611v4.447h5.611V467.836L21.14,467.836z M46.912,463.979h5.805v-4.796h-5.805V463.979
	L46.912,463.979z M18.8,450.459l10.788,7.602l7.332,5.166v2.435h-1.916v9.568c-23.296,0-18.68,0-32.322,0v-9.568H0.548v-2.342
	l7.464-5.26L18.8,450.459L18.8,450.459z M65.919,459.495h-5.643v4.472h5.643V459.495L65.919,459.495z M55.845,449.835
	c-1.368,0-2.478,0.766-2.478,1.712s1.11,1.712,2.478,1.712s2.477-0.766,2.477-1.712C58.322,450.602,57.212,449.835,55.845,449.835
	L55.845,449.835z M65.919,467.776h-5.643v4.472h5.643V467.776z"/>
<path fill="#B0DFFF" d="M692.6,472.918h-1.112v-19.557v-0.856l-1.178-0.286l-12.957-3.138v-4.879v-0.766l-1.007-0.329l-21.743-7.086
	l-2.501-0.815v0.334l-6.852,2.823v34.404h-2.667v2.426h11.274h1.755v-1.213v-34.955l18.232,5.943v3.263l-5.277-1.279l-2.044-0.495
	v-0.037l-0.058,0.024l-0.229-0.056v0.151l-6.813,2.807v23.347h-2.706v2.426h11.273h1.757v-1.213v-24.105l18.231,4.417v19.914v1.213
	h1.755h2.867L692.6,472.918L692.6,472.918z M685.939,475.035c-1.976,0-4.049,0-6.231,0c-2.295,0-4.716,0-7.276,0
	c0-1.419,0-2.843,0-4.267c2.559,0.116,4.98,0.226,7.276,0.329c2.182,0.098,4.255,0.193,6.231,0.282
	C685.939,472.598,685.939,473.818,685.939,475.035L685.939,475.035z M685.939,459.239c-1.976-0.386-4.049-0.791-6.231-1.218
	c-2.295-0.449-4.716-0.922-7.276-1.421c0-1.424,0-2.848,0-4.274c2.559,0.616,4.98,1.2,7.276,1.752
	c2.182,0.525,4.255,1.024,6.231,1.5C685.939,456.799,685.939,458.019,685.939,459.239L685.939,459.239z M685.939,464.455
	c-1.976-0.258-4.049-0.53-6.231-0.816c-2.295-0.3-4.716-0.618-7.276-0.952c0-1.424,0-2.848,0-4.272
	c2.559,0.451,4.98,0.877,7.276,1.282c2.182,0.384,4.255,0.75,6.231,1.097C685.939,462.016,685.939,463.235,685.939,464.455
	L685.939,464.455z M685.939,469.709c-1.976-0.13-4.049-0.267-6.231-0.41c-2.295-0.151-4.716-0.311-7.276-0.479
	c0-1.421,0-2.846,0-4.27c2.559,0.285,4.98,0.554,7.276,0.809c2.182,0.243,4.255,0.473,6.231,0.693
	C685.939,467.271,685.939,468.491,685.939,469.709z"/>
<path fill="#B0DFFF" d="M1078.177,374.835h6.737v13.628l9.531,8.131l13.128,11.198h-26.256h-26.253l13.127-11.198l9.987-8.521
	v-13.238H1078.177z M1083.525,456.237h7.898v6.824h-7.898V456.237L1083.525,456.237z M1011.113,445.888h4.776v4.126h-4.776V445.888
	L1011.113,445.888z M1034.104,453.12h4.776v4.126h-4.776V453.12L1034.104,453.12z M1034.104,438.46h4.776v4.126h-4.776V438.46
	L1034.104,438.46z M1034.104,431.228h4.776v4.126h-4.776V431.228L1034.104,431.228z M1026.439,445.888h4.776v4.126h-4.776V445.888
	L1026.439,445.888z M1026.439,431.228h4.776v4.126h-4.776V431.228L1026.439,431.228z M1018.594,445.888h4.777v4.126h-4.777V445.888
	L1018.594,445.888z M1018.594,453.12h4.777v4.126h-4.777V453.12L1018.594,453.12z M1018.594,438.46h4.777v4.126h-4.777V438.46
	L1018.594,438.46z M1011.113,431.228h4.776v4.126h-4.776V431.228L1011.113,431.228z M1124.712,447.106h5.93v5.125h-5.93V447.106
	L1124.712,447.106z M1124.712,456.089h5.93v5.125h-5.93V456.089L1124.712,456.089z M1124.712,428.901h5.93v5.125h-5.93V428.901
	L1124.712,428.901z M1134.003,437.882h5.931v5.126h-5.931V437.882L1134.003,437.882z M1134.003,428.901h5.931v5.125h-5.931V428.901
	L1134.003,428.901z M1059.484,456.237h7.898v6.824h-7.898V456.237L1059.484,456.237z M1059.484,431.993h7.898v6.823h-7.898V431.993
	L1059.484,431.993z M1095.427,431.993h7.898v6.823h-7.898V431.993L1095.427,431.993z M1083.525,431.993h7.898v6.823h-7.898V431.993
	L1083.525,431.993z M1071.679,431.993h7.898v6.823h-7.898V431.993L1071.679,431.993z M1059.484,420.031h7.898v6.825h-7.898V420.031
	L1059.484,420.031z M1095.427,420.031h7.898v6.825h-7.898V420.031L1095.427,420.031z M1083.525,420.031h7.898v6.825h-7.898V420.031
	L1083.525,420.031z M1059.484,444.276h7.898v6.823h-7.898V444.276L1059.484,444.276z M1095.427,444.276h7.898v6.823h-7.898V444.276
	L1095.427,444.276z M1042.48,473.819v-50.657l-36.47-14.45v73.777c62.035,0,94.483,0,155.663,0v-8.67h-16.453v-48.891h-24.91v48.891
	h-10.191v-61.655h-57.145v61.655L1042.48,473.819L1042.48,473.819z"/>
<path fill="#B0DFFF" d="M1320.339,433.316h10.151v7.015h-10.151V433.316L1320.339,433.316z M1388.962,441.193l-16.324-4.943v40.855
	h16.324V441.193L1388.962,441.193z M1307.477,425.568v4.303h3.401v47.234h16.14v-11.32h10.233v11.32h3.728v-11.32h10.029v11.32
	h15.692v-47.234h3.169v-4.303H1307.477L1307.477,425.568z M1289.746,454.745l16.322-4.943v27.303h-16.322V454.745L1289.746,454.745z
	 M1347.214,454.447h10.148v7.015h-10.148V454.447L1347.214,454.447z M1333.834,454.447h10.149v7.015h-10.149V454.447
	L1333.834,454.447z M1320.339,454.447h10.151v7.015h-10.151V454.447L1320.339,454.447z M1347.214,444.077h10.148v7.015h-10.148
	V444.077L1347.214,444.077z M1333.834,444.077h10.149v7.015h-10.149V444.077L1333.834,444.077z M1320.339,444.077h10.151v7.015
	h-10.151V444.077L1320.339,444.077z M1347.214,433.316h10.148v7.015h-10.148V433.316L1347.214,433.316z M1333.834,433.316h10.149
	v7.015h-10.149V433.316z"/>
<path fill="#B0DFFF" d="M995.657,423.063v51.294h5.529v8.132H882.753v-8.132h7.014v-25.039h-3.847v-6.083h48.646v-20.173h-2.941
	v-5.004h67.425v5.004h-3.393V423.063z M898.466,455.245v7.506h10.181v-7.506H898.466L898.466,455.245z M943.97,441.326v7.506h10.181
	v-7.506H943.97L943.97,441.326z M977.343,441.326v7.506h10.181v-7.506H977.343L977.343,441.326z M960.826,441.326v7.506h10.181
	v-7.506H960.826L960.826,441.326z M943.97,427.564v7.506h10.181v-7.506H943.97L943.97,427.564z M977.343,427.564v7.506h10.181
	v-7.506H977.343L977.343,427.564z M960.826,427.564v7.506h10.181v-7.506H960.826L960.826,427.564z M943.97,455.123v7.505h10.181
	v-7.505H943.97L943.97,455.123z M977.343,455.123v7.505h10.181v-7.505H977.343L977.343,455.123z M960.826,455.123v7.505h10.181
	v-7.505H960.826L960.826,455.123z M915.323,455.245v7.506h10.181v-7.506H915.323z"/>
<path fill="#B0DFFF" d="M1157.795,419.735h32.026v56.249h9.977V435.34h14.438v-26.855l37.802,5.443v62.056h8.401v-37.438h29.402
	v37.438h11.552v6.169h-155.411v-6.169h11.814L1157.795,419.735L1157.795,419.735z M1266.242,441.768v3.994h4.184v-3.994H1266.242
	L1266.242,441.768z M1230.249,460.343v5.263h5.514v-5.263H1230.249L1230.249,460.343z M1230.251,428.626c0,1.753,0,3.508,0,5.262
	c1.837,0,3.675,0,5.512,0c0-1.753,0-3.508,0-5.262C1233.926,428.626,1232.088,428.626,1230.251,428.626L1230.251,428.626z
	 M1230.251,436.554c0,1.755,0,3.508,0,5.263c1.837,0,3.675,0,5.512,0c0-1.755,0-3.508,0-5.263
	C1233.926,436.554,1232.088,436.554,1230.251,436.554L1230.251,436.554z M1230.251,444.484c0,1.753,0,3.508,0,5.263
	c1.837,0,3.675,0,5.512,0c0-1.755,0-3.509,0-5.263C1233.926,444.484,1232.088,444.484,1230.251,444.484L1230.251,444.484z
	 M1230.251,452.413c0,1.753,0,3.508,0,5.262c1.837,0,3.675,0,5.512,0c0-1.753,0-3.508,0-5.262
	C1233.926,452.413,1232.088,452.413,1230.251,452.413L1230.251,452.413z M1230.249,420.696v5.263h5.514v-5.263H1230.249
	L1230.249,420.696z M1220.01,460.343v5.263h5.514v-5.263H1220.01L1220.01,460.343z M1220.01,428.626c0,1.753,0,3.508,0,5.262
	c1.839,0,3.678,0,5.516,0c0-1.753,0-3.508,0-5.262C1223.688,428.626,1221.849,428.626,1220.01,428.626L1220.01,428.626z
	 M1220.01,436.554c0,1.755,0,3.508,0,5.263c1.839,0,3.678,0,5.516,0c0-1.755,0-3.508,0-5.263
	C1223.688,436.554,1221.849,436.554,1220.01,436.554L1220.01,436.554z M1220.01,444.484c0,1.753,0,3.508,0,5.263
	c1.839,0,3.678,0,5.516,0c0-1.755,0-3.509,0-5.263C1223.688,444.484,1221.849,444.484,1220.01,444.484L1220.01,444.484z
	 M1220.01,452.413c0,1.753,0,3.508,0,5.262c1.839,0,3.678,0,5.516,0c0-1.753,0-3.508,0-5.262
	C1223.688,452.413,1221.849,452.413,1220.01,452.413L1220.01,452.413z M1220.01,420.696v5.263h5.514v-5.263H1220.01L1220.01,420.696
	z M1163.306,465.297v5.262h5.514v-5.262H1163.306L1163.306,465.297z M1163.308,433.579c0,1.755,0,3.508,0,5.263
	c1.838,0,3.675,0,5.512,0c0-1.755,0-3.508,0-5.263C1166.983,433.579,1165.145,433.579,1163.308,433.579L1163.308,433.579z
	 M1163.308,441.508c0,1.755,0,3.508,0,5.262c1.838,0,3.675,0,5.512,0c0-1.753,0-3.507,0-5.262
	C1166.983,441.508,1165.145,441.508,1163.308,441.508L1163.308,441.508z M1163.308,449.437c0,1.755,0,3.508,0,5.263
	c1.838,0,3.675,0,5.512,0c0-1.755,0-3.508,0-5.263C1166.983,449.437,1165.145,449.437,1163.308,449.437L1163.308,449.437z
	 M1163.308,457.366c0,1.755,0,3.508,0,5.263c1.838,0,3.675,0,5.512,0c0-1.754,0-3.508,0-5.263
	C1166.983,457.366,1165.145,457.366,1163.308,457.366L1163.308,457.366z M1163.306,425.65v5.262h5.514v-5.262H1163.306
	L1163.306,425.65z M1280.857,459.821c0,1.331,0,2.663,0,3.994c1.396,0,2.79,0,4.184,0c0-1.331,0-2.663,0-3.994
	C1283.647,459.821,1282.253,459.821,1280.857,459.821L1280.857,459.821z M1280.857,453.804c0,1.33,0,2.663,0,3.993
	c1.396,0,2.79,0,4.184,0c0-1.33,0-2.663,0-3.993C1283.647,453.804,1282.253,453.804,1280.857,453.804L1280.857,453.804z
	 M1280.857,447.786c0,1.33,0,2.663,0,3.993c1.396,0,2.79,0,4.184,0c0-1.33,0-2.663,0-3.993
	C1283.647,447.786,1282.253,447.786,1280.857,447.786L1280.857,447.786z M1280.857,441.768v3.994h4.184v-3.994H1280.857
	L1280.857,441.768z M1273.667,459.821c0,1.331,0,2.663,0,3.994c1.394,0,2.79,0,4.184,0c0-1.331,0-2.663,0-3.994
	C1276.457,459.821,1275.061,459.821,1273.667,459.821L1273.667,459.821z M1273.667,453.804c0,1.33,0,2.663,0,3.993
	c1.394,0,2.79,0,4.184,0c0-1.33,0-2.663,0-3.993C1276.457,453.804,1275.061,453.804,1273.667,453.804L1273.667,453.804z
	 M1273.667,447.786c0,1.33,0,2.663,0,3.993c1.394,0,2.79,0,4.184,0c0-1.33,0-2.663,0-3.993
	C1276.457,447.786,1275.061,447.786,1273.667,447.786L1273.667,447.786z M1273.667,441.768v3.994h4.184v-3.994H1273.667
	L1273.667,441.768z M1266.243,459.821c0,1.331,0,2.663,0,3.994c1.394,0,2.79,0,4.184,0c0-1.331,0-2.663,0-3.994
	C1269.033,459.821,1267.637,459.821,1266.243,459.821L1266.243,459.821z M1266.243,453.804c0,1.33,0,2.663,0,3.993
	c1.394,0,2.79,0,4.184,0c0-1.33,0-2.663,0-3.993C1269.033,453.804,1267.637,453.804,1266.243,453.804L1266.243,453.804z
	 M1266.243,447.786c0,1.33,0,2.663,0,3.993c1.394,0,2.79,0,4.184,0c0-1.33,0-2.663,0-3.993
	C1269.033,447.786,1267.637,447.786,1266.243,447.786L1266.243,447.786z M1172.524,392.492l-7.911-5.734l-8.936,1.213l8.897,14.029
	c6.399-0.869,12.797-1.738,19.194-2.607l3.638,12.798l15.2-2.064l8.583-14.458l19.385-2.631c6.42-2.306,3.174-5.536-4.788-7.779
	l-17.913,2.433l-12.878-4.347l-15.201,2.064l1.668,5.869L1172.524,392.492z"/>
<path fill="#B0DFFF" d="M805.076,431.822h72.133l6.455,10.225h-5.368v34.668H850.08v-16.083c-5.838-2.414-11.499-2.556-16.95,0
	v16.083h-29.57v-34.668h-5.574L805.076,431.822L805.076,431.822z M858.837,460.632v8.121h-2.272v1.492h15.101v-1.492h-2.349v-8.121
	H858.837L858.837,460.632z M858.837,445.934v8.121h-2.272v1.491h15.101v-1.491h-2.349v-8.121H858.837L858.837,445.934z
	 M836.202,445.934v8.121h-2.273v1.491h15.101v-1.491h-2.349v-8.121H836.202L836.202,445.934z M812.497,460.632v8.121h-2.273v1.492
	h15.101v-1.492h-2.35v-8.121H812.497L812.497,460.632z M812.497,445.934v8.121h-2.273v1.491h15.101v-1.491h-2.35v-8.121H812.497z"/>
<path fill="#B0DFFF" d="M778.353,443.509v4.462v3.135v13.364h2.016l0.173-13.051l18.648,2.659l-1.222,4.143l-4.092-0.584v11.981
	h1.517v5.467h-29.444v-2.566v-0.53h-0.767h-3.049v-2.065v-0.529h-0.767h-2.837v-12.533h-11.291v12.533h-3.097h-0.767v0.529v2.065
	h-3.049h-0.767v0.53v2.566H703.6v-5.467h2.086v-11.683l-2.33,1.006l-1.881-2.09l16.491-7.123l0.905-0.391l0.928,0.371l6.708,2.69
	l6.854,2.96l0.487-0.785l-6.899-4.328v-6.519l-3.438,1.484l-3.432-3.812l30.096-13.002l1.652-0.713l1.692,0.678l30.801,12.35
	l-3.254,3.883L778.353,443.509L778.353,443.509z M764.413,475.085v-2.035h-3.049h-0.767v-0.53v-2.064h-2.07h-3.091h-5.371h-2.829
	h-2.33v2.064v0.53h-0.767h-3.049v2.035H764.413L764.413,475.085z M733.332,442.407v8.193h8.606v-8.193H733.332L733.332,442.407z
	 M764.947,442.407v8.193h8.606v-8.193H764.947L764.947,442.407z M764.947,456.961v8.194h8.606v-8.194H764.947L764.947,456.961z
	 M714.803,459.207v8.193h8.607v-8.193H714.803z"/>
<rect x="0.548" y="474.001" fill="#B0DFFF" width="1403.432" height="8.819"/>
<g id="XMLID_1295_">
	<g>
		<path fill="#D6EDFF" d="M1387.818,123.53c-2.082-10.338-11.215-18.127-22.169-18.127c-3.079,0-6.017,0.618-8.693,1.733
			c-4.7-11.549-16.031-19.693-29.268-19.693c-16.351,0-29.802,12.42-31.431,28.339c-8.023,1.643-14.057,8.742-14.057,17.247
			c0,9.723,7.88,17.606,17.602,17.606h86.611c7.504,0,13.587-6.086,13.587-13.589C1400,130.015,1394.66,124.234,1387.818,123.53z"/>
	</g>
</g>
<g id="XMLID_2_">
	<g>
		<path fill="#E2F2FE" d="M-10.192,278.392c1.521-7.554,8.195-13.246,16.199-13.246c2.25,0,4.397,0.452,6.352,1.266
			c3.434-8.439,11.714-14.39,21.387-14.39c11.948,0,21.777,9.075,22.967,20.708c5.863,1.2,10.272,6.388,10.272,12.603
			c0,7.105-5.758,12.865-12.862,12.865H-9.165c-5.484,0-9.928-4.447-9.928-9.93C-19.094,283.13-15.192,278.906-10.192,278.392z"/>
	</g>
</g>
<g id="XMLID_3_">
	<g>
		<path fill="#E2F2FE" d="M1030.075,21.746c1.097-5.448,5.91-9.553,11.683-9.553c1.623,0,3.171,0.326,4.581,0.913
			c2.477-6.086,8.448-10.378,15.424-10.378c8.617,0,15.705,6.545,16.564,14.934c4.228,0.866,7.408,4.607,7.408,9.089
			c0,5.124-4.152,9.278-9.276,9.278h-45.643c-3.955,0-7.16-3.207-7.16-7.161C1023.655,25.164,1026.469,22.117,1030.075,21.746z"/>
	</g>
</g>
<g id="XMLID_5_">
	<g>
		<path fill="#D6EDFF" d="M667.039,176.827c1.511-7.503,8.14-13.156,16.09-13.156c2.234,0,4.367,0.448,6.309,1.258
			c3.411-8.382,11.635-14.293,21.242-14.293c11.867,0,21.63,9.014,22.812,20.568c5.823,1.192,10.203,6.345,10.203,12.518
			c0,7.057-5.719,12.778-12.775,12.778h-62.861c-5.447,0-9.861-4.417-9.861-9.863C658.197,181.534,662.073,177.338,667.039,176.827z
			"/>
	</g>
</g>
<g>
	<g>
		<path fill="#0096F1" d="M606.768,116.653v-15.68c-0.387,0.164-0.785,0.328-1.195,0.492c-0.867-1.242-1.746-2.332-2.637-3.27
			c3.586-1.406,5.795-2.93,6.627-4.57h-6.311V90.18h2.18c-0.703-1.113-1.395-2.086-2.074-2.918c1.266-1.219,2.543-3.035,3.832-5.449
			h4.535c-0.387,0.867-0.791,1.688-1.213,2.461h9.826v3.48h-4.904c-0.059,0.855-0.152,1.664-0.281,2.426h6.24v3.445h-5.467
			l5.01,3.34l-2.285,2.602h15.047v17.086h-4.711v-1.547h-17.508v1.547H606.768z M606.205,90.181h4.43
			c0.117-0.727,0.199-1.535,0.246-2.426h-2.549C607.652,88.657,606.943,89.466,606.205,90.181z M609.422,99.567h8.068
			c-1.488-1.395-2.865-2.631-4.131-3.709C612.48,97.241,611.168,98.478,609.422,99.567z M628.986,103.259h-17.508v2.461h17.508
			V103.259z M611.479,111.415h17.508v-2.285h-17.508V111.415z M621.955,84.415h14.027v13.148h-14.027V84.415z M631.623,93.837
			v-5.695h-5.309v5.695H631.623z"/>
		<path fill="#0096F1" d="M653.279,107.688l3.762,1.758c-1.383,2.484-2.684,4.582-3.902,6.293l-3.656-2.215
			C650.865,111.743,652.131,109.798,653.279,107.688z M650.326,91.903h6.188v-1.301h-4.781V88h4.781v-1.3h-5.309v-2.602h5.309
			v-2.109h4.219v2.109h5.309V86.7h-5.309v1.301h4.746v2.602h-4.746v1.301h5.555v2.602h-5.555v1.406h11.707v-1.406h-4.922v-2.602
			h4.922v-1.301h-3.832v-2.602h3.832V86.7h-4.676v-2.602h4.676v-2.109h4.219v2.109h6.258V86.7h-6.258v1.301h5.695v2.602h-5.695
			v1.301h6.504v2.602h-6.504v1.406h4.043v11.039h-12.867c0.961,1.031,1.887,2.086,2.777,3.164l-3.094,2.25
			c-0.961-1.336-2.098-2.754-3.41-4.254l1.652-1.16h-13.184v-2.848h23.484v-1.336h-21.867v-2.602h21.867v-1.441h-23.203v-2.813
			h3.656v-1.406h-6.188v-2.602H650.326z M672.791,108.462c1.313,0.609,2.719,1.219,4.219,1.828c-0.281,1.148-0.633,2.262-1.055,3.34
			c-0.609,1.641-2.156,2.461-4.641,2.461h-8.262c-3.422,0-5.133-1.277-5.133-3.832v-4.219h4.641v2.813
			c0,1.148,0.621,1.723,1.863,1.723h5.063c1.5,0,2.379-0.422,2.637-1.266C672.311,110.771,672.533,109.821,672.791,108.462z
			 M679.893,107.337c1.57,2.063,3.012,4.031,4.324,5.906l-3.586,2.215c-1.383-2.344-2.73-4.418-4.043-6.223L679.893,107.337z"/>
		<path fill="#0096F1" d="M696.557,109.728h14.133V89.583h-12.234v-4.992h30.516v4.992h-12.516v20.145h14.309v4.992h-34.207
			L696.557,109.728L696.557,109.728z"/>
		<path fill="#0096F1" d="M763.213,81.849h4.676v7.313l8.191-1.898l-0.158,6.627c-0.141,5.402-0.36,8.432-0.659,9.088
			s-0.694,1.21-1.187,1.661s-2.109,0.8-4.852,1.046c-0.328-1.547-0.715-3.105-1.16-4.676c0.516,0.047,0.979,0.07,1.389,0.07
			c0.715,0,1.181-0.062,1.397-0.185s0.363-0.299,0.439-0.527s0.144-0.964,0.202-2.206s0.088-3.035,0.088-5.379l-3.691,0.914v15.82
			h-4.676v-14.66l-3.27,0.809v13.922c0,1.313,0.773,1.969,2.32,1.969h6.891c0.867,0,1.582-0.117,2.145-0.352
			s0.932-0.639,1.107-1.213s0.416-1.963,0.721-4.166c1.898,0.82,3.48,1.477,4.746,1.969c-0.633,2.883-1.175,4.711-1.626,5.484
			s-1.066,1.371-1.846,1.793s-1.696,0.633-2.751,0.633h-10.371c-4.008,0-6.012-1.816-6.012-5.449V96.808l-2.355,0.58l-0.264-1.16
			h-1.6v10.635l3.059-0.967c-0.07,0.984-0.07,2.637,0,4.957l-10.301,3.621l-0.914-5.238l3.48-0.984V96.228h-2.742v-4.816h2.742
			V81.92h4.676v9.492h2.039v1.178l2.18-0.51v-7.102h4.676v6.029l3.27-0.756L763.213,81.849L763.213,81.849z"/>
		<path fill="#0096F1" d="M827.479,84.661l-7.26,27.229h-6.451l-4.641-17.754c-0.246-0.961-0.393-1.963-0.439-3.006h-0.07
			c-0.117,1.219-0.281,2.221-0.492,3.006l-4.746,17.754h-6.697l-7.26-27.229h6.363l4.043,18.457
			c0.176,0.809,0.299,1.828,0.369,3.059h0.123c0.059-0.961,0.24-2.01,0.545-3.146l5.063-18.369h6.17l4.605,18.598
			c0.188,0.738,0.334,1.699,0.439,2.883h0.088c0.047-1.02,0.182-2.016,0.404-2.988l3.955-18.492h5.889V84.661z"/>
		<path fill="#0096F1" d="M836.76,84.661v27.229h-5.801V84.661H836.76z"/>
		<path fill="#0096F1" d="M858.574,89.407h-9.721v6.996h8.947v4.746h-8.947v10.74h-5.801V84.661h15.521v4.746H858.574z"/>
		<path fill="#0096F1" d="M868.928,84.661v27.229h-5.801V84.661H868.928z"/>
		<path fill="#0096F1" d="M884.414,91.481h1.828c-0.539-0.703-1.477-1.77-2.813-3.199c2.555-1.875,4.406-4.008,5.555-6.398h4.852
			c-0.375,0.844-0.773,1.652-1.195,2.426h9.07v3.34h-6.75c0.703,0.773,1.395,1.547,2.074,2.32l-2.039,1.512h3.41
			c-0.211-0.609-0.422-1.23-0.633-1.863l3.973-0.668c0.258,0.82,0.516,1.664,0.773,2.531h8.086
			c-0.961-1.219-1.805-2.215-2.531-2.988l1.09-0.844h-1.582c-0.773,1.219-1.641,2.355-2.602,3.41
			c-0.68-0.516-1.922-1.371-3.727-2.566c1.688-1.852,3.07-4.055,4.148-6.609h4.887c-0.281,0.844-0.598,1.652-0.949,2.426h8.121v3.34
			h-5.273c0.633,0.68,1.254,1.359,1.863,2.039l-2.461,1.793h5.73v5.063h-4.781v-1.477h-23.344v1.477h-4.781L884.414,91.481
			L884.414,91.481z M886.313,91.481h7.102c-0.633-0.797-1.371-1.699-2.215-2.707l1.441-1.125h-2.32
			C889.148,89.079,887.813,90.356,886.313,91.481z M913.805,97.177v8.367H892.5v1.547h22.43v9.598h-4.57v-1.125H892.5v1.125h-4.781
			V97.177H913.805z M909.234,102.31v-1.898H892.5v1.898H909.234z M910.359,110.325H892.5v2.039h17.859V110.325z"/>
		<path fill="#0096F1" d="M930.961,114.72l-0.984-4.992l4.184-0.949v-8.648h-3.375v-4.359h3.375v-7.383h-3.516v-4.43h11.531v4.43
			h-3.516v7.383h3.27v4.359h-3.27v7.506c1.254-0.34,2.473-0.686,3.656-1.037c-0.094,1.664-0.105,3.27-0.035,4.816H951v-3.059h-8.016
			v-4.008H951v-2.531h-7.84V83.571h20.18v18.246h-7.84v2.531h8.016v4.008H955.5v3.059h9.563v4.008h-24.117v-3.709
			C937.852,112.569,934.523,113.571,930.961,114.72z M947.555,90.849H951v-3.34h-3.445V90.849z M947.555,97.88H951v-3.375h-3.445
			V97.88z M958.945,87.509H955.5v3.34h3.445V87.509z M958.945,97.88v-3.375H955.5v3.375H958.945z"/>
		<path fill="#0096F1" d="M977.227,100.868h14.309V87.966h-12.762v-4.641h31.078v4.641h-12.973v12.902h14.52v4.641h-14.52v10.934
			h-5.344v-10.934h-14.309v-4.641H977.227z M979.266,91.13l3.691-2.496c2.25,2.625,4.582,5.531,6.996,8.719l-4.254,2.813
			C983.332,96.579,981.188,93.567,979.266,91.13z M1009.922,91.481c-2.484,2.977-5.109,5.906-7.875,8.789l-3.586-2.918
			c2.719-2.813,5.156-5.707,7.313-8.684L1009.922,91.481z"/>
		<path fill="#0096F1" d="M1048.875,86.103c3.609,3.516,6.949,6.973,10.02,10.371l-3.902,3.305l-2.742-3.234
			c-10.078,0.164-18.832,0.586-26.262,1.266l-1.863-4.148c4.617-2.859,9.188-6.914,13.711-12.164l4.605,2.496
			c-3.328,3.141-6.844,6.211-10.547,9.211l16.91-0.598l-3.586-3.938L1048.875,86.103z M1027.43,116.548V100.06h27.07v16.488h-4.781
			v-2.074h-17.508v2.074H1027.43z M1049.719,104.419h-17.508v5.695h17.508V104.419z"/>
	</g>
</g>
<g>
	<path fill="#1490E6" d="M295.462,496.269c0,0-60.12-10.779-119.204,33.11c0,0-85.745,50.89,227.523,42.89
		c0,0,138.007,0.221,167.317-42.89c0,0-1.141-27.362-59.234-29.236"/>
</g>
<image overflow="visible" enable-background="new    " width="512" height="512" xlink:href="3D3998F7.png"  transform="matrix(0.0786 0 0 0.0708 230.399 502.909)">
</image>
<circle fill="#0896F7" cx="389.386" cy="384.415" r="149.696"/>
<path fill="#FEFAF9" d="M480.196,315.161H298.578c-3.843,0-6.986,3.144-6.986,6.986v108.481H487.18V322.147
	C487.18,318.305,484.038,315.161,480.196,315.161z"/>
<path fill="#FFFFFF" d="M291.592,434.07c0,1.893,3.143,3.441,6.986,3.441h181.618c3.842,0,6.984-1.549,6.984-3.441v-3.642H291.592
	V434.07z"/>
<path fill="#FFE876" d="M473.68,320.385H304.231c-3.585,0-6.518,2.933-6.518,6.518v101.212h182.482V326.903
	C480.196,323.318,477.264,320.385,473.68,320.385z"/>
<polygon fill="#7BC5EF" points="302.49,423.643 302.49,369.5 302.49,325.306 389.323,325.306 476.157,325.306 476.157,369.5 
	476.157,423.643 389.323,423.643 "/>
<polygon fill="#E6E7E8" points="412.752,456.42 366.022,456.42 369.307,436.475 409.465,436.475 "/>
<polygon fill="#E6E7E8" points="409.938,441.428 409.465,437.423 369.307,437.423 368.835,441.428 "/>
<g>
	<path fill="#E6E7E8" d="M397.384,434.629h-15.995c-1.134,0-2.053-0.919-2.053-2.054c0-1.133,0.919-2.053,2.053-2.053h15.995
		c1.134,0,2.053,0.92,2.053,2.053C399.438,433.71,398.519,434.629,397.384,434.629z"/>
</g>
<g>
	<path fill="#FFFFFF" d="M417.107,458.447h-55.44c-0.765,0-1.386-0.336-1.386-0.751s0.62-0.751,1.386-3.867h55.44
		c0.764,3.117,1.385,3.453,1.385,3.867C418.491,458.111,417.871,458.447,417.107,458.447z"/>
</g>
<g>
	<g>
		<path fill="#FFFFFD" d="M331.964,358.051c31.507-31.461,82.473-31.461,113.981,0l-9.268,8.328
			c-26.872-25.909-69.5-25.909-95.447,0.925L331.964,358.051z"/>
		<path fill="#FFFFFD" d="M347.717,373.781c22.24-23.132,59.308-23.132,82.475-0.926l-10.193,10.18
			c-16.681-17.581-45.408-16.656-62.088,0L347.717,373.781z"/>
		<path fill="#FFFFFD" d="M364.398,389.511c12.973-13.879,36.14-13.879,49.113,0l-9.265,10.179c-8.341-8.328-22.241-8.328-30.58,0
			L364.398,389.511z"/>
		<path fill="#FFFFFD" d="M378.298,403.391c6.487-5.553,15.755-5.553,22.24,0l-11.119,11.102L378.298,403.391z"/>
	</g>
</g>
<g id="XMLID_1_">
	<g>
		<path fill="#F6C20C" d="M519.697,394.336c2.291-11.374,12.34-19.944,24.391-19.944c3.387,0,6.62,0.68,9.564,1.907
			c5.171-12.706,17.638-21.667,32.202-21.667c17.99,0,32.789,13.665,34.582,31.18c8.828,1.807,15.467,9.619,15.467,18.976
			c0,10.698-8.669,19.371-19.367,19.371h-95.294c-8.257,0-14.949-6.696-14.949-14.952
			C506.293,401.471,512.168,395.11,519.697,394.336z"/>
	</g>
</g>
<g>
	<g id="MobileMe_1_">
		<g>
			<path fill="#1CD053" d="M163.85,393.295c0,10.992,8.849,19.902,19.755,19.902h61.122c10.906,0,19.751-8.911,19.751-19.902
				c0-9.922-7.214-18.147-16.646-19.649c0.119-0.701,0.184-1.412,0.184-2.154c0-6.969-5.604-12.615-12.517-12.615
				c-3.085,0-5.91,1.126-8.09,2.995c-3.884-8.821-8.866-16.866-22.844-16.866c-16.952,0-24.986,13.17-24.986,27.066
				c0,0.579,0.025,1.159,0.065,1.73C170.635,375.645,163.85,383.675,163.85,393.295z"/>
		</g>
	</g>
	<g id="XMLID_1389_">
		<g>
			<g id="XMLID_46_">
				<g id="XMLID_47_">
					<path fill="#EAFCF0" d="M236.265,377.783h-10.979v14.165c0,2.064-1.677,3.737-3.739,3.737h-16.903v4.749
						c0,1.175,0.957,2.13,2.136,2.13h16.605l6.94,5.802c0.906,0.751,1.393,0.44,1.09-0.694l-1.357-5.067
						c-0.002-0.016-0.008-0.025-0.015-0.041h6.222c1.179,0,2.134-0.955,2.134-2.13V379.92
						C238.398,378.738,237.444,377.783,236.265,377.783z"/>
				</g>
			</g>
			<g id="XMLID_44_">
				<g id="XMLID_45_">
					<path fill="#EAFCF0" d="M192.063,394.087h3.268c-0.004,0.008-0.01,0.025-0.014,0.033l-1.357,5.067
						c-0.192,0.718-0.069,1.11,0.274,1.11c0.204,0,0.481-0.139,0.816-0.416l6.938-5.793h2.658h16.902
						c1.181,0,2.136-0.955,2.136-2.138v-14.165v-6.349c0-1.175-0.955-2.129-2.136-2.129h-29.484c-1.179,0-2.136,0.955-2.136,2.129
						v20.514C189.927,393.132,190.881,394.087,192.063,394.087z"/>
				</g>
			</g>
		</g>
	</g>
</g>
<path fill="#FFFFFF" d="M577.125,390.74c0.639,0.58,0.505,2.17,0.303,2.62c-0.201,0.452-1.056,0.67-1.899,0.487
	c-0.841-0.181-1.732,0.616-1.982,1.772c-0.248,1.157,0.235,2.249,1.076,2.432c0.84,0.181,1.522,1.617,1.571,2.11
	c0.05,0.496-0.579,1.115-1.398,1.378c-0.819,0.263-1.193,1.4-0.832,2.526c0.36,1.125,1.327,1.829,2.147,1.568
	c0.82-0.265,1.692-0.129,1.941,0.301c0.247,0.428,0.53,1.994-0.047,2.632c-0.579,0.637-0.333,1.809,0.542,2.602
	c0.878,0.795,2.068,0.921,2.645,0.285c0.576-0.641,2.168-0.508,2.618-0.305c0.451,0.202,0.669,1.055,0.488,1.898
	c-0.182,0.841,0.614,1.734,1.77,1.983c1.157,0.249,2.25-0.234,2.432-1.075c0.18-0.84,1.617-1.522,2.11-1.574
	c0.494-0.049,1.112,0.582,1.377,1.4c0.264,0.818,1.399,1.192,2.524,0.83s1.831-1.327,1.569-2.146
	c-0.265-0.821,0.655-2.136,1.052-2.423c0.397-0.286,1.245-0.048,1.882,0.529c0.637,0.579,1.808,0.334,2.6-0.543
	c0.795-0.875,0.922-2.065,0.284-2.643c-0.638-0.58-0.507-2.172-0.303-2.621c0.202-0.449,1.056-0.669,1.898-0.486
	c0.841,0.182,1.734-0.614,1.983-1.771c0.247-1.155-0.236-2.25-1.076-2.43c-0.841-0.18-1.522-1.619-1.573-2.112
	c-0.049-0.494,0.581-1.114,1.4-1.378c0.818-0.264,1.192-1.399,0.831-2.522c-0.362-1.127-1.328-1.831-2.148-1.567
	c-0.818,0.263-2.135-0.657-2.422-1.055c-0.286-0.397-0.048-1.243,0.529-1.882c0.577-0.637,0.332-1.806-0.543-2.6
	c-0.876-0.793-2.064-0.92-2.642-0.282c-0.579,0.637-2.17,0.505-2.621,0.303c-0.448-0.203-0.668-1.056-0.487-1.898
	c0.182-0.842-0.615-1.734-1.771-1.982c-1.155-0.251-2.249,0.234-2.429,1.076c-0.181,0.839-1.62,1.523-2.112,1.571
	c-0.494,0.049-1.112-0.58-1.377-1.4c-0.263-0.819-1.399-1.192-2.523-0.831c-1.127,0.363-1.832,1.328-1.569,2.147
	c0.262,0.821-0.655,2.134-1.053,2.423c-0.399,0.285-1.242,0.048-1.881-0.528c-0.636-0.577-1.807-0.334-2.601,0.542
	C576.613,388.974,576.487,390.163,577.125,390.74z M586.639,390.136c4.93-1.587,10.212,1.124,11.796,6.053
	c1.586,4.93-1.124,10.212-6.053,11.796c-4.929,1.585-10.21-1.126-11.795-6.054C579.001,397.003,581.71,391.722,586.639,390.136z"/>
<path fill="#FFFFFF" d="M557.432,388.082c0.412,0.371,0.326,1.397,0.197,1.685c-0.13,0.29-0.68,0.43-1.222,0.313
	c-0.54-0.116-1.114,0.397-1.275,1.142c-0.159,0.743,0.15,1.445,0.693,1.563c0.539,0.117,0.977,1.04,1.01,1.358
	c0.033,0.317-0.373,0.716-0.898,0.885c-0.528,0.171-0.769,0.901-0.534,1.626c0.231,0.724,0.851,1.177,1.379,1.007
	c0.529-0.17,1.088-0.084,1.248,0.193c0.16,0.278,0.341,1.285-0.03,1.694c-0.37,0.411-0.212,1.163,0.35,1.675
	c0.564,0.51,1.33,0.592,1.7,0.182c0.372-0.413,1.396-0.327,1.685-0.198c0.289,0.13,0.43,0.68,0.314,1.221
	c-0.118,0.541,0.396,1.116,1.139,1.277c0.744,0.159,1.447-0.153,1.563-0.693c0.116-0.541,1.043-0.981,1.36-1.011
	c0.317-0.033,0.714,0.373,0.885,0.9c0.169,0.526,0.898,0.766,1.623,0.533c0.724-0.233,1.177-0.854,1.008-1.381
	s0.423-1.373,0.678-1.558c0.256-0.184,0.801-0.03,1.21,0.34c0.41,0.372,1.163,0.215,1.673-0.349c0.511-0.562,0.592-1.328,0.182-1.7
	c-0.412-0.373-0.326-1.397-0.196-1.685c0.131-0.289,0.68-0.43,1.221-0.314c0.542,0.118,1.116-0.395,1.276-1.138
	c0.16-0.742-0.152-1.446-0.692-1.563c-0.54-0.115-0.98-1.041-1.012-1.357c-0.031-0.319,0.373-0.717,0.9-0.887
	c0.528-0.169,0.768-0.9,0.536-1.624c-0.235-0.723-0.856-1.178-1.382-1.007c-0.527,0.17-1.373-0.422-1.558-0.679
	c-0.185-0.255-0.032-0.799,0.34-1.209c0.371-0.412,0.212-1.164-0.35-1.675c-0.564-0.509-1.33-0.591-1.7-0.181
	c-0.373,0.41-1.396,0.325-1.685,0.195c-0.289-0.132-0.431-0.68-0.313-1.222c0.116-0.539-0.398-1.115-1.141-1.274
	c-0.744-0.16-1.446,0.152-1.562,0.691c-0.117,0.54-1.041,0.98-1.359,1.012c-0.319,0.029-0.715-0.373-0.887-0.9
	c-0.168-0.527-0.899-0.769-1.624-0.535c-0.724,0.232-1.178,0.855-1.009,1.382c0.17,0.527-0.42,1.371-0.677,1.557
	c-0.255,0.184-0.799,0.031-1.21-0.339c-0.409-0.371-1.162-0.216-1.673,0.349C557.103,386.945,557.021,387.71,557.432,388.082z
	 M563.552,387.692c3.172-1.02,6.57,0.724,7.587,3.895c1.021,3.171-0.722,6.568-3.893,7.587c-3.17,1.02-6.566-0.724-7.587-3.893
	C558.641,392.11,560.384,388.713,563.552,387.692z"/>
<path fill="#FFFFFF" d="M551.293,404.828c0.316,0.285,0.251,1.072,0.151,1.294c-0.099,0.222-0.521,0.33-0.938,0.241
	c-0.416-0.09-0.858,0.304-0.981,0.875c-0.123,0.572,0.117,1.112,0.533,1.202c0.414,0.091,0.753,0.8,0.776,1.044
	c0.024,0.244-0.285,0.552-0.691,0.681c-0.406,0.131-0.589,0.693-0.409,1.25c0.176,0.555,0.654,0.904,1.06,0.775
	c0.405-0.133,0.838-0.065,0.959,0.149c0.123,0.21,0.263,0.985-0.023,1.301c-0.285,0.314-0.165,0.894,0.27,1.287
	c0.433,0.393,1.02,0.455,1.305,0.14c0.286-0.316,1.074-0.251,1.295-0.151c0.222,0.101,0.332,0.522,0.241,0.94
	c-0.088,0.415,0.305,0.855,0.877,0.98c0.571,0.122,1.113-0.118,1.202-0.532c0.09-0.416,0.799-0.754,1.044-0.778
	c0.244-0.025,0.55,0.287,0.68,0.692c0.13,0.404,0.692,0.588,1.248,0.411c0.558-0.181,0.906-0.659,0.775-1.062
	c-0.129-0.405,0.326-1.056,0.52-1.198c0.197-0.142,0.617-0.022,0.931,0.263c0.315,0.284,0.894,0.163,1.286-0.271
	c0.392-0.431,0.456-1.02,0.14-1.306s-0.249-1.073-0.149-1.295c0.098-0.222,0.523-0.331,0.938-0.241
	c0.414,0.091,0.858-0.304,0.979-0.876c0.123-0.57-0.116-1.112-0.531-1.201c-0.417-0.09-0.754-0.801-0.778-1.044
	c-0.024-0.245,0.286-0.551,0.691-0.681c0.406-0.13,0.59-0.692,0.412-1.247c-0.181-0.557-0.658-0.907-1.063-0.775
	c-0.404,0.129-1.055-0.326-1.196-0.522c-0.142-0.196-0.024-0.614,0.261-0.93c0.285-0.316,0.164-0.895-0.269-1.285
	c-0.432-0.392-1.021-0.456-1.304-0.14c-0.287,0.315-1.075,0.249-1.296,0.149c-0.223-0.099-0.331-0.523-0.241-0.939
	c0.089-0.415-0.306-0.857-0.877-0.981c-0.572-0.122-1.111,0.117-1.202,0.532c-0.088,0.416-0.799,0.753-1.044,0.778
	c-0.244,0.024-0.549-0.287-0.68-0.693c-0.13-0.403-0.692-0.589-1.248-0.41c-0.556,0.179-0.904,0.658-0.775,1.063
	c0.132,0.405-0.324,1.055-0.521,1.196c-0.197,0.142-0.614,0.025-0.93-0.261c-0.315-0.284-0.893-0.165-1.287,0.27
	C551.041,403.953,550.979,404.541,551.293,404.828z M555.997,404.526c2.439-0.783,5.05,0.558,5.834,2.994
	c0.785,2.437-0.556,5.049-2.993,5.833c-2.436,0.785-5.049-0.557-5.833-2.993C552.222,407.923,553.561,405.312,555.997,404.526z"/>
<g id="XMLID_4_">
	<g>
		<path fill="#B20CF8" d="M337.553,244.749c2.291-11.374,12.34-19.944,24.391-19.944c3.387,0,6.62,0.68,9.564,1.907
			c5.171-12.706,17.638-21.667,32.202-21.667c17.99,0,32.789,13.665,34.582,31.18c8.828,1.807,15.467,9.619,15.467,18.976
			c0,10.698-8.669,19.371-19.367,19.371h-95.294c-8.257,0-14.949-6.696-14.949-14.952
			C324.149,251.884,330.024,245.523,337.553,244.749z"/>
	</g>
</g>
<path fill="#F7F8F8" d="M412.974,243.948c-0.003-0.043-0.005-0.087-0.007-0.132c-0.014-0.223-0.03-0.446-0.05-0.669
	c-0.059-0.679-0.147-1.357-0.269-2.029c-0.57-3.105-1.933-6.02-3.834-8.522c-2.281-2.914-5.385-5.164-8.806-6.526
	c-2.012-0.733-4.128-1.117-6.259-1.186c-0.04-0.005-0.078-0.009-0.118-0.014c-0.001,0.004-0.002,0.008-0.003,0.012
	c-2.528-0.067-5.076,0.309-7.496,1.093c-3.453,1.362-6.621,3.58-8.935,6.526c-1.804,2.334-3.119,5.006-3.766,7.862
	c-0.087,0.357-0.166,0.715-0.234,1.075c-0.166,0.97-0.257,1.956-0.281,2.945c-0.007,0.222-0.009,0.445-0.009,0.667
	c0.001,0.023,0,0.045,0,0.068c0.003,0.281,0.012,0.56,0.027,0.84c0.002,0.044,0.005,0.087,0.008,0.132
	c0.013,0.223,0.029,0.446,0.05,0.669c0.059,0.679,0.146,1.356,0.268,2.029c0.57,3.104,1.933,6.019,3.834,8.522
	c2.28,2.914,5.385,5.164,8.807,6.526c2.011,0.733,4.128,1.117,6.258,1.185c0.04,0.005,0.079,0.01,0.118,0.015
	c0.001-0.004,0.003-0.008,0.003-0.012c2.528,0.068,5.076-0.308,7.496-1.093c3.454-1.362,6.621-3.579,8.935-6.525
	c1.805-2.335,3.119-5.006,3.766-7.863c0.087-0.357,0.167-0.715,0.234-1.075c0.166-0.97,0.258-1.955,0.281-2.946
	c0.007-0.222,0.01-0.445,0.009-0.667c-0.001-0.023,0-0.045,0-0.068C412.997,244.508,412.988,244.228,412.974,243.948z
	 M401.136,238.5c0.512,1.661,0.902,3.406,0.994,5.153c-2.601,0-5.172,0-7.771,0c0-1.562,0-3.124,0-4.685
	C396.619,238.968,398.877,238.747,401.136,238.5z M394.359,236.213c0-2.64,0-5.281,0-7.921c0.484,0.071,1.022,0.079,1.538,0.159
	c0.17,0.092,0.32,0.22,0.436,0.407c1.584,2.154,2.915,4.467,3.864,6.969C398.272,236.099,396.315,236.253,394.359,236.213z
	 M402.194,246.277c0.019,1.733-0.202,3.466-0.698,5.137c-2.379-0.305-4.758-0.461-7.137-0.473c0-1.57,0-3.115,0-4.687
	C396.971,246.255,399.582,246.231,402.194,246.277z M401.487,230.605c1.873,1.057,3.481,2.52,4.753,4.219
	c-0.855,0.206-1.71,0.38-2.564,0.519C402.97,233.767,402.186,232.214,401.487,230.605z M394.359,253.732
	c2.093-0.032,4.188,0.184,6.249,0.433c-0.966,2.393-2.223,4.718-3.832,6.723c-0.565,0.762-1.557,0.644-2.417,0.721
	C394.359,258.992,394.359,256.347,394.359,253.732z M400.917,259.58c0.66-1.601,1.506-3.124,2.177-4.747
	c0.045-0.081,0.092-0.161,0.137-0.242c1.024,0.125,2.048,0.28,3.071,0.496C404.824,256.937,403.064,258.572,400.917,259.58z
	 M404.146,251.88c0.422-1.872,0.835-3.72,1.017-5.626c1.489,0,2.979,0,4.467,0c-0.026,0.615-0.102,1.225-0.215,1.829
	c-0.026,0.135-0.052,0.268-0.081,0.402c-0.021,0.098-0.042,0.195-0.065,0.292c-0.03,0.134-0.065,0.265-0.099,0.399
	c-0.306,1.159-0.738,2.288-1.228,3.376C406.656,252.368,405.399,252.125,404.146,251.88z M405.192,243.653
	c-0.036-1.909-0.288-3.788-0.695-5.667c1.108-0.221,2.249-0.443,3.39-0.665c0.961,1.988,1.588,4.099,1.761,6.3
	C408.145,243.649,406.666,243.653,405.192,243.653z M384.772,251.408c-0.511-1.661-0.901-3.406-0.994-5.153c2.6,0,5.173,0,7.771,0
	c0,1.562,0,3.123,0,4.685C389.29,250.939,387.032,251.16,384.772,251.408z M391.549,253.694c0,2.64,0,5.281,0,7.921
	c-0.482-0.07-1.023-0.079-1.538-0.159c-0.169-0.091-0.318-0.22-0.436-0.406c-1.582-2.155-2.914-4.468-3.864-6.97
	C387.638,253.809,389.592,253.654,391.549,253.694z M383.715,243.631c-0.019-1.734,0.201-3.466,0.697-5.138
	c2.379,0.305,4.758,0.462,7.137,0.473c0,1.57,0,3.114,0,4.687C388.937,243.653,386.326,243.677,383.715,243.631z M382.813,235.075
	c-0.045,0.081-0.091,0.161-0.136,0.242c-1.023-0.125-2.048-0.281-3.072-0.496c1.478-1.849,3.24-3.485,5.386-4.493
	C384.331,231.93,383.486,233.452,382.813,235.075z M381.763,238.027c-0.423,1.873-0.836,3.72-1.018,5.626c-1.489,0-2.978,0-4.467,0
	c0.026-0.615,0.101-1.225,0.214-1.827c0.025-0.135,0.053-0.27,0.081-0.404c0.021-0.097,0.042-0.195,0.066-0.292
	c0.03-0.134,0.066-0.267,0.1-0.399c0.306-1.159,0.738-2.288,1.228-3.376C379.252,237.54,380.509,237.783,381.763,238.027z
	 M380.716,246.255c0.037,1.909,0.288,3.788,0.695,5.667c-1.108,0.222-2.249,0.443-3.389,0.665c-0.963-1.988-1.589-4.099-1.762-6.3
	C377.764,246.258,379.242,246.256,380.716,246.255z M382.233,254.565c0.705,1.576,1.49,3.128,2.189,4.738
	c-1.873-1.057-3.482-2.519-4.754-4.218C380.522,254.878,381.379,254.704,382.233,254.565z M391.549,236.176
	c-2.094,0.032-4.187-0.184-6.249-0.433c0.967-2.393,2.224-4.719,3.832-6.722c0.566-0.763,1.559-0.645,2.418-0.722
	C391.549,230.915,391.549,233.561,391.549,236.176z"/>
<g>
	<path fill="#D71820" d="M528.253,70.837l5.34-5.288l-4.215-4.182l4.215-4.247l-5.34-5.242l-4.179,4.182c0,0-1.5-1.5-2.785-2.783
		c-4.424-4.436-11.691-4.436-16.125,0c-2.252,2.219-3.345,5.165-3.345,8.09c0,2.894,1.093,5.821,3.345,8.052
		c4.434,4.457,11.701,4.457,16.125,0c1.285-1.267,2.785-2.78,2.785-2.78L528.253,70.837z M516.03,64.114
		c-1.558,1.558-4.056,1.558-5.593,0c-0.744-0.754-1.127-1.765-1.127-2.748c0-1.032,0.383-2.026,1.127-2.797
		c1.536-1.546,4.035-1.546,5.593,0c1.225,1.239,2.762,2.797,2.762,2.797S517.256,62.866,516.03,64.114z M586.297,53.277
		c-4.438-4.436-11.692-4.436-16.146,0c-1.248,1.283-2.78,2.783-2.78,2.783l-4.198-4.182l-5.288,5.242l4.196,4.247l-4.196,4.182
		l5.288,5.288l4.198-4.198c0,0,1.532,1.513,2.78,2.78c4.454,4.457,11.708,4.457,16.146,0c2.235-2.231,3.341-5.158,3.341-8.052
		C589.638,58.442,588.532,55.497,586.297,53.277z M581.008,64.114c-1.527,1.558-4.021,1.558-5.562,0
		c-1.253-1.248-2.781-2.748-2.781-2.748s1.528-1.558,2.781-2.797c1.541-1.546,4.035-1.546,5.562,0
		c0.771,0.771,1.139,1.765,1.139,2.797C582.147,62.349,581.779,63.36,581.008,64.114z M551.068,61.367
		c0,0,12.395-12.413,13.618-13.652c4.473-4.453,4.473-11.673,0-16.158c-4.436-4.438-11.656-4.438-16.144,0
		c-1.737,1.786-2.764,2.796-2.764,2.796s-1.013-1.011-2.764-2.796c-4.473-4.438-11.694-4.438-16.16,0
		c-4.457,4.484-4.457,11.705,0,16.158c1.235,1.239,13.65,13.652,13.65,13.652s-12.416,12.364-13.65,13.617
		c-4.457,4.454-4.457,11.689,0,16.162c4.466,4.433,11.687,4.433,16.16,0c1.751-1.786,2.764-2.832,2.764-2.832
		s1.027,1.045,2.764,2.832c4.487,4.433,11.708,4.433,16.144,0c4.473-4.473,4.473-11.708,0-16.162
		C563.463,73.731,551.068,61.367,551.068,61.367z M532.144,42.424c-1.516-1.558-1.516-4.019,0-5.561
		c1.542-1.511,4.047-1.511,5.562,0c1.479,1.476,2.797,2.794,2.797,2.794l-4.215,4.182l5.276,5.307l4.212-4.212l4.213,4.212
		l5.274-5.307l-4.196-4.182c0,0,1.302-1.318,2.797-2.794c1.528-1.511,4.019-1.511,5.547,0c1.542,1.542,1.542,4.003,0,5.561
		c-1.607,1.609-13.663,13.701-13.663,13.701S533.718,44.033,532.144,42.424z M559.411,85.842c-1.527,1.509-4.019,1.509-5.547,0
		c-1.495-1.484-2.797-2.785-2.797-2.785l4.196-4.21l-5.274-5.293l-4.213,4.217l-4.212-4.217l-5.276,5.293l4.215,4.21
		c0,0-1.318,1.301-2.797,2.785c-1.515,1.509-4.021,1.509-5.562,0c-1.516-1.528-1.516-4.056,0-5.565
		c1.574-1.609,13.603-13.701,13.603-13.701s12.057,12.092,13.663,13.701C560.953,81.786,560.953,84.314,559.411,85.842z"/>
	<path fill="#221E1F" d="M485.931,85.455v1.476c-1.214-1.222-2.605-1.802-4.15-1.802c-1.767,0-3.269,0.629-4.446,1.867
		c-1.179,1.255-1.793,2.832-1.793,4.713c0,1.912,0.614,3.521,1.793,4.773c1.206,1.283,2.693,1.898,4.541,1.898
		c1.449,0,2.794-0.547,4.054-1.7v1.344h3.085v-12.57L485.931,85.455L485.931,85.455z M485.07,94.653
		c-0.698,0.738-1.592,1.12-2.756,1.12c-1.057,0-1.928-0.417-2.63-1.153c-0.668-0.759-0.991-1.709-0.991-2.911
		c0-1.111,0.322-2.075,1.015-2.811c0.697-0.775,1.589-1.162,2.643-1.162c1.126,0,2.02,0.387,2.718,1.162
		c0.698,0.715,1.056,1.7,1.056,2.857C486.127,92.928,485.768,93.88,485.07,94.653z"/>
	<path fill="#221E1F" d="M443.571,79.778h3.22v7.121c0,0,1.149-1.635,3.651-1.635c2.282,0,4.389,1.523,4.389,5.369v7.459h-2.939
		v-7.687c0-1.318-0.518-2.957-2.382-2.957c-1.819,0-2.719,1.33-2.719,2.957v7.687h-3.22L443.571,79.778L443.571,79.778z"/>
	<path fill="#221E1F" d="M442.427,94.972c-0.704,0.964-1.578,1.8-2.684,2.429c-1.278,0.721-2.708,1.076-4.268,1.076
		c-2.294,0-4.264-0.838-5.887-2.41c-1.623-1.642-2.443-3.57-2.443-5.919c0-2.445,0.908-4.534,2.754-6.173
		c1.62-1.45,3.458-2.189,5.558-2.189c1.504,0,2.934,0.424,4.28,1.127c1.077,0.645,1.985,1.437,2.69,2.431l-2.746,1.958
		c-0.169-0.466-0.452-0.885-0.785-1.269c-0.905-1.029-2.039-1.576-3.468-1.576c-1.384,0-2.531,0.547-3.442,1.606
		c-0.935,1.067-1.387,2.445-1.387,4.085c0,1.704,0.452,3.09,1.387,4.18c0.892,1.029,2.023,1.546,3.442,1.546
		c1.375,0,2.524-0.517,3.468-1.593c0.311-0.4,0.597-0.82,0.785-1.271C439.68,93.009,441.723,94.474,442.427,94.972"/>
	<path fill="#221E1F" d="M469.672,85.264c-3.038-0.068-4.012,1.635-4.012,1.635l-0.141-1.479h-2.724v12.656h3.15v-7.684
		c0-1.614,0.979-2.978,2.757-2.978c1.872,0,2.431,1.674,2.431,2.978v7.684h2.916v-7.442
		C474.048,86.755,471.957,85.264,469.672,85.264z"/>
	<path fill="#D71820" d="M457.222,98.076V85.369h2.968v12.707C460.19,98.076,457.222,98.076,457.222,98.076z"/>
	<path fill="#D71820" d="M458.667,84.1c-1.034,0-1.704-0.787-1.704-1.688c0-0.964,0.73-1.698,1.746-1.698
		c1.084,0,1.736,0.733,1.736,1.698c0,0.901-0.652,1.688-1.736,1.688H458.667z"/>
	<path fill="#D71820" d="M458.667,102.787c-1.034,0-1.704-0.771-1.704-1.656c0-0.997,0.73-1.751,1.746-1.751
		c1.084,0,1.736,0.755,1.736,1.751c0,0.885-0.652,1.656-1.736,1.656H458.667z"/>
	<path fill="#221E1F" d="M503.747,103.976c-1.881-0.03-3.2,0.771-4.295,1.975c-0.738-1.332-1.978-1.912-3.295-1.975
		c-2.704-0.063-3.827,1.642-3.827,1.642l-0.131-1.511h-2.859v12.621h3.202v-7.603c0-1.639,0.866-2.962,2.522-2.962
		c1.702,0,2.202,1.641,2.202,2.962v7.603h2.912c0,0,0-7.412,0-7.442v0.03c0.034-2.154,0.996-3.153,2.475-3.153
		c1.704,0,2.22,1.641,2.22,2.962v7.603h2.91v-7.395C507.783,105.506,505.854,104.04,503.747,103.976z"/>
	<path fill="#D71820" d="M457.222,116.728v-12.621h2.968v12.621H457.222z"/>
	<path fill="#221E1F" d="M481.218,103.814c1.2,0,2.283,0.293,3.338,0.903c1.053,0.578,1.89,1.416,2.436,2.378
		c0.576,1.05,0.9,2.156,0.9,3.3c0,1.204-0.324,2.296-0.9,3.325c-0.587,1.032-1.383,1.867-2.394,2.415
		c-1.023,0.594-2.139,0.866-3.354,0.866c-1.827,0-3.354-0.608-4.623-1.895c-1.294-1.288-1.914-2.85-1.914-4.697
		c0-1.944,0.724-3.572,2.172-4.855C478.139,104.396,479.603,103.814,481.218,103.814z M481.444,106.019
		c-1.022,0-1.831,0.403-2.492,1.239c-0.697,0.831-1.017,1.895-1.017,3.15c0,1.334,0.32,2.415,0.979,3.246
		c0.691,0.79,1.494,1.194,2.531,1.194c1.015,0,1.882-0.405,2.533-1.224c0.694-0.836,1.053-1.898,1.053-3.216
		c0-1.283-0.359-2.319-1.01-3.181C483.344,106.421,482.498,106.019,481.444,106.019z"/>
	<path fill="#221E1F" d="M450.443,103.914c-2.999-0.03-4.017,1.674-4.017,1.674l-0.141-1.481h-2.746v12.621h3.173v-7.638
		c0-1.669,0.951-2.957,2.718-2.957c1.89,0,2.43,1.62,2.43,2.957v7.638h2.972v-7.412
		C454.832,105.455,452.725,103.976,450.443,103.914z"/>
	<path fill="#221E1F" d="M434.099,116.907c3.022,0.044,4.019-1.644,4.019-1.644l0.145,1.465h2.749v-12.621h-3.2v7.665
		c0,1.628-0.907,2.978-2.717,2.978c-1.89,0-2.621-1.674-2.621-2.978v-7.665h-3.189v7.409
		C429.286,115.394,431.799,116.874,434.099,116.907z"/>
	<path fill="#221E1F" d="M474.474,114.266c-0.53,0.808-1.248,1.432-2.124,1.898c-1.011,0.615-2.17,0.903-3.39,0.903
		c-1.82,0-3.379-0.675-4.683-1.93c-1.302-1.285-1.953-2.834-1.953-4.664c0-1.963,0.756-3.602,2.204-4.92
		c1.271-1.125,2.757-1.702,4.431-1.702c1.149,0,2.305,0.287,3.36,0.897c0.865,0.466,1.591,1.127,2.128,1.881l-2.347,1.709
		c-0.144-0.375-0.359-0.664-0.584-0.917c-0.645-0.792-1.48-1.192-2.534-1.192c-0.98,0-1.802,0.4-2.46,1.192
		c-0.686,0.787-1.005,1.8-1.005,3.052c0,1.253,0.319,2.285,1.005,3.09c0.658,0.766,1.48,1.141,2.46,1.141
		c1.021,0,1.849-0.375,2.5-1.176c0.259-0.291,0.474-0.61,0.618-0.966L474.474,114.266z"/>
	<path fill="#221E1F" d="M568.902,115.074c-0.549,0-1.001-0.452-1.001-0.999v-7.847h-3.425v1.525h1.148v6.932
		c0,1.174,1.027,1.895,1.83,1.895h13.022v-1.507L568.902,115.074L568.902,115.074z M574.3,104.666
		c-0.959-0.654-2.073-1.141-2.073-1.141l-0.805,1.029l0.805,0.71h-3.087v9.1h0.626c0.673,0,1.448-0.449,1.448-1.365v-1.257h2.38
		v2.622h0.659c0.79,0,1.37-0.422,1.399-1.383v-1.239h2.41v0.613c0,0.27-0.354,0.468-0.61,0.468h-0.929l0.4,1.542h1.493
		c1.015,0,1.832-0.801,1.832-1.833v-6.015c0-0.692-0.575-1.253-1.253-1.253h-2.412l3.185-1.898v-1.735h-10.741v1.493h7.847
		L574.3,104.666z M573.594,110.28h-2.38v-1.029h2.38V110.28z M573.594,107.805h-2.38v-1.029h2.38V107.805z M578.063,110.28h-2.41
		v-1.029h2.41V110.28z M578.063,106.775v1.029h-2.41v-1.029H578.063z M568.19,104.396c-1.125-1.579-2.361-2.431-2.361-2.431
		l-1.206,0.871l2.028,2.718L568.19,104.396z"/>
	<path fill="#221E1F" d="M554.768,111.407l-1.016,0.289v-8.492c0-0.962-0.579-1.542-1.304-1.542h-5.386v1.542h4.518v2.35h-1.846
		v-1.577h-2.026v9.407l-0.903,0.27v1.679l4.776-1.355v3.09h0.869c0.666,0,1.109-0.421,1.304-1.241v-2.442l1.016-0.293v-1.685
		H554.768z M551.58,112.276l-1.846,0.512v-2.349h1.846V112.276z M551.58,108.915h-1.846v-1.856h1.846V108.915z M559.91,110.073
		h2.656v-1.532h-2.959v-2.312h2.959v-1.512h-1.93l1.733-2.189l-1.654-1.19l-2.135,3.378h-1.579l1.285-0.934
		c-1.092-1.514-2.028-2.445-2.028-2.445l-1.206,0.74l1.563,2.638h-1.933v1.512h2.545v2.312h-2.545v1.532h2.252l-2.636,6.802h1.127
		c0.61,0,1.225-0.419,1.462-0.966l1.623-4.054l2.224,5.02h2.233L559.91,110.073z"/>
	<path fill="#221E1F" d="M524.809,103.462h-4.951v-2.123h-2.603v2.123h-3.253v1.544h3.253v6.173h-4.024v-7.717h-2.606v9.214h6.63
		v4.391h0.4c1.479-0.068,2.138-0.708,2.203-1.804v-2.587h4.37c1.176,0,2.154-0.934,2.222-2.142v-5.511
		C526.383,104.17,525.708,103.462,524.809,103.462z M523.859,110.201c0,0.545-0.433,0.978-0.978,0.978h-3.022v-6.173h4V110.201z"/>
	<path fill="#221E1F" d="M542.725,101.632h-10.744v1.493h10.006v11.016c0,0.545-0.422,0.964-0.971,0.964h-9.84v-13.473h-2.377v15
		h13.41c1.188,0,2.17-0.964,2.17-2.188v-11.175C544.378,102.372,543.654,101.632,542.725,101.632z M541.179,112.11h-1.16
		l0.773-0.957c-1.013-0.934-1.817-1.407-1.817-1.407l-0.903,0.906l1.309,1.457h-1.772v-2.538h3.507v-1.528h-3.507v-1.881h3.507
		v-1.509h-9.07v1.509h3.167v1.881h-3.167v1.528h3.167v2.538h-3.232v1.514h9.198L541.179,112.11L541.179,112.11z"/>
</g>
<path fill="#1490E6" d="M779.651,500.264c0,0-214.933,52.339,65.667,63.342c0,0,28.803,16.505,126.363,0
	c0,0,182.601,38.097,242.35-38.818c0,0,6.66-13.985-42.585-24.524C1122.202,489.725,828.017,485.104,779.651,500.264z"/>
<image overflow="visible" width="795" height="678" xlink:href="../Desktop/wifi/地图/7dad6d2b924c27ba61332e02df0b25f6.png"  transform="matrix(0.0786 0 0 0.0786 729.1246 500.6649)">
</image>
<image overflow="visible" width="795" height="678" xlink:href="../Desktop/wifi/地图/7dad6d2b924c27ba61332e02df0b25f6.png"  transform="matrix(0.0613 0 0 0.0613 1161.673 485.7889)">
</image>
</svg>
