<?xml version="1.0" encoding="utf-8"?>
<!-- Generator: Adobe Illustrator 16.0.0, SVG Export Plug-In . SVG Version: 6.00 Build 0)  -->
<!DOCTYPE svg PUBLIC "-//W3C//DTD SVG 1.1//EN" "http://www.w3.org/Graphics/SVG/1.1/DTD/svg11.dtd">
<svg version="1.1" id="图层_1" xmlns="http://www.w3.org/2000/svg" xmlns:xlink="http://www.w3.org/1999/xlink" x="0px" y="0px"
	 width="125.627px" height="75px" viewBox="0 0 125.627 75" enable-background="new 0 0 125.627 75" xml:space="preserve">
<path fill="#D71820" d="M75.34,34.904l4.374-4.332l-3.453-3.426l3.453-3.479l-4.374-4.295l-3.423,3.426c0,0-1.229-1.229-2.282-2.28
	c-3.625-3.634-9.577-3.634-13.209,0c-1.846,1.817-2.74,4.23-2.74,6.627c0,2.371,0.895,4.769,2.74,6.595
	c3.633,3.651,9.584,3.651,13.209,0c1.053-1.037,2.282-2.276,2.282-2.276L75.34,34.904z M65.327,29.396
	c-1.277,1.277-3.324,1.277-4.582,0c-0.61-0.617-0.922-1.445-0.922-2.25c0-0.846,0.314-1.659,0.922-2.292
	c1.258-1.266,3.305-1.266,4.582,0c1.003,1.016,2.262,2.292,2.262,2.292S66.33,28.375,65.327,29.396z M122.889,20.52
	c-3.635-3.635-9.578-3.635-13.227,0c-1.021,1.051-2.275,2.28-2.275,2.28l-3.439-3.426l-4.332,4.295l3.438,3.479l-3.438,3.426
	l4.332,4.332l3.439-3.439c0,0,1.254,1.239,2.275,2.277c3.65,3.65,9.592,3.65,13.227,0c1.83-1.828,2.738-4.227,2.738-6.596
	C125.627,24.751,124.719,22.338,122.889,20.52z M118.555,29.396c-1.25,1.277-3.293,1.277-4.557,0
	c-1.027-1.021-2.279-2.25-2.279-2.25s1.252-1.276,2.279-2.292c1.264-1.266,3.305-1.266,4.557,0c0.631,0.633,0.934,1.446,0.934,2.292
	C119.488,27.951,119.186,28.779,118.555,29.396z M94.029,27.146c0,0,10.155-10.169,11.159-11.184c3.662-3.648,3.662-9.563,0-13.236
	c-3.637-3.636-9.551-3.636-13.227,0c-1.424,1.463-2.264,2.29-2.264,2.29s-0.829-0.828-2.263-2.29c-3.664-3.636-9.58-3.636-13.238,0
	c-3.651,3.673-3.651,9.588,0,13.236c1.012,1.015,11.182,11.184,11.182,11.184S75.207,37.273,74.196,38.301
	c-3.651,3.649-3.651,9.575,0,13.239c3.659,3.632,9.574,3.632,13.238,0c1.434-1.465,2.263-2.319,2.263-2.319s0.84,0.854,2.264,2.319
	c3.676,3.632,9.592,3.632,13.227,0c3.662-3.664,3.662-9.592,0-13.239C104.184,37.275,94.029,27.146,94.029,27.146z M78.526,11.629
	c-1.242-1.276-1.242-3.292,0-4.555c1.263-1.237,3.315-1.237,4.557,0c1.211,1.209,2.291,2.288,2.291,2.288l-3.453,3.426l4.322,4.347
	l3.45-3.45l3.453,3.45l4.321-4.347l-3.438-3.426c0,0,1.066-1.079,2.293-2.288c1.25-1.237,3.291-1.237,4.541,0
	c1.264,1.263,1.264,3.279,0,4.555c-1.314,1.319-11.19,11.224-11.19,11.224S79.815,12.948,78.526,11.629z M100.863,47.196
	c-1.25,1.236-3.293,1.236-4.545,0c-1.223-1.215-2.292-2.281-2.292-2.281l3.438-3.449l-4.321-4.335l-3.453,3.455l-3.449-3.455
	l-4.323,4.335l3.454,3.449c0,0-1.079,1.066-2.291,2.281c-1.241,1.236-3.294,1.236-4.558,0c-1.241-1.251-1.241-3.322,0-4.559
	c1.29-1.319,11.144-11.223,11.144-11.223s9.877,9.906,11.193,11.223C102.125,43.874,102.125,45.945,100.863,47.196z"/>
<path fill="#FFFFFF" d="M48.156,49.104v1.21c-0.994-1-2.134-1.478-3.4-1.478c-1.448,0-2.678,0.516-3.643,1.529
	c-0.967,1.028-1.469,2.319-1.469,3.861c0,1.566,0.503,2.885,1.469,3.911c0.988,1.05,2.207,1.553,3.719,1.553
	c1.187,0,2.289-0.448,3.321-1.391v1.102h2.528V49.104H48.156L48.156,49.104z M47.452,56.64c-0.572,0.604-1.303,0.918-2.257,0.918
	c-0.866,0-1.58-0.343-2.155-0.945c-0.548-0.621-0.812-1.4-0.812-2.385c0-0.908,0.264-1.699,0.832-2.303
	c0.571-0.637,1.302-0.952,2.165-0.952c0.922,0,1.654,0.318,2.226,0.952c0.572,0.586,0.866,1.391,0.866,2.34
	C48.318,55.226,48.022,56.006,47.452,56.64z"/>
<path fill="#FFFFFF" d="M13.456,44.454h2.637v5.833c0,0,0.941-1.34,2.991-1.34c1.87,0,3.596,1.246,3.596,4.398v6.11h-2.407v-6.298
	c0-1.079-0.424-2.421-1.952-2.421c-1.49,0-2.228,1.089-2.228,2.421v6.298h-2.637V44.454L13.456,44.454z"/>
<path fill="#FFFFFF" d="M12.518,56.9c-0.577,0.791-1.292,1.476-2.198,1.989c-1.047,0.591-2.219,0.882-3.496,0.882
	c-1.88,0-3.493-0.685-4.823-1.974C0.672,56.454,0,54.876,0,52.95c0-2.003,0.743-3.715,2.255-5.059
	C3.582,46.704,5.088,46.1,6.809,46.1c1.233,0,2.404,0.347,3.506,0.923c0.881,0.528,1.626,1.177,2.203,1.991l-2.249,1.603
	c-0.138-0.38-0.37-0.724-0.644-1.037c-0.742-0.844-1.67-1.293-2.84-1.293c-1.135,0-2.073,0.449-2.819,1.314
	c-0.767,0.876-1.137,2.004-1.137,3.348c0,1.396,0.37,2.53,1.137,3.424c0.729,0.843,1.657,1.267,2.819,1.267
	c1.126,0,2.067-0.424,2.84-1.305c0.254-0.328,0.489-0.672,0.644-1.041C10.269,55.293,11.943,56.493,12.518,56.9"/>
<path fill="#FFFFFF" d="M34.837,48.948c-2.489-0.056-3.288,1.341-3.288,1.341l-0.115-1.212h-2.231v10.366h2.58V53.15
	c0-1.321,0.801-2.44,2.258-2.44c1.534,0,1.992,1.371,1.992,2.44v6.293h2.389v-6.096C38.422,50.169,36.71,48.948,34.837,48.948z"/>
<path fill="#FFFFFF" d="M24.639,59.443V49.034h2.432v10.409C27.069,59.443,24.639,59.443,24.639,59.443z"/>
<path fill="#FFFFFF" d="M25.822,47.995c-0.847,0-1.395-0.645-1.395-1.383c0-0.79,0.599-1.39,1.431-1.39
	c0.888,0,1.423,0.6,1.423,1.39c0,0.738-0.535,1.383-1.423,1.383H25.822z"/>
<path fill="#FFFFFF" d="M25.822,63.302c-0.847,0-1.395-0.632-1.395-1.356c0-0.814,0.599-1.433,1.431-1.433
	c0.888,0,1.423,0.618,1.423,1.433c0,0.727-0.535,1.356-1.423,1.356H25.822z"/>
<path fill="#FFFFFF" d="M62.751,64.277c-1.541-0.023-2.62,0.632-3.519,1.619c-0.604-1.093-1.62-1.566-2.698-1.619
	c-2.216-0.053-3.136,1.345-3.136,1.345l-0.107-1.238h-2.342v10.339h2.622v-6.226c0-1.344,0.709-2.428,2.067-2.428
	c1.394,0,1.804,1.345,1.804,2.428v6.226h2.387c0,0,0-6.07,0-6.096v0.024c0.028-1.766,0.816-2.583,2.027-2.583
	c1.396,0,1.819,1.345,1.819,2.427v6.228h2.384v-6.058C66.058,65.53,64.478,64.33,62.751,64.277z"/>
<path fill="#FFFFFF" d="M24.639,74.723V64.384h2.432v10.339H24.639z"/>
<path fill="#FFFFFF" d="M44.296,64.144c0.983,0,1.869,0.24,2.735,0.74c0.862,0.475,1.548,1.16,1.995,1.948
	c0.473,0.859,0.736,1.767,0.736,2.702c0,0.987-0.266,1.882-0.736,2.726c-0.481,0.845-1.133,1.527-1.961,1.977
	c-0.838,0.486-1.752,0.71-2.748,0.71c-1.496,0-2.748-0.5-3.788-1.552c-1.059-1.056-1.568-2.335-1.568-3.848
	c0-1.593,0.594-2.925,1.78-3.978C41.774,64.621,42.973,64.144,44.296,64.144z M44.481,65.95c-0.838,0-1.499,0.331-2.042,1.016
	c-0.571,0.681-0.833,1.552-0.833,2.581c0,1.092,0.262,1.978,0.802,2.658c0.565,0.647,1.224,0.979,2.073,0.979
	c0.831,0,1.542-0.332,2.075-1.002c0.569-0.685,0.862-1.556,0.862-2.635c0-1.05-0.293-1.9-0.828-2.605
	C46.038,66.279,45.345,65.95,44.481,65.95z"/>
<path fill="#FFFFFF" d="M19.085,64.227c-2.457-0.024-3.291,1.37-3.291,1.37l-0.116-1.213h-2.249v10.339h2.6v-6.255
	c0-1.368,0.779-2.422,2.226-2.422c1.548,0,1.99,1.327,1.99,2.422v6.255h2.435v-6.07C22.681,65.488,20.955,64.277,19.085,64.227z"/>
<path fill="#FFFFFF" d="M5.698,74.869c2.475,0.035,3.292-1.346,3.292-1.346l0.119,1.199h2.252V64.384H8.739v6.279
	c0,1.332-0.743,2.439-2.226,2.439c-1.549,0-2.147-1.372-2.147-2.439v-6.279H1.753v6.067C1.753,73.631,3.813,74.844,5.698,74.869z"/>
<path fill="#FFFFFF" d="M38.772,72.706c-0.434,0.661-1.022,1.174-1.741,1.556C36.203,74.765,35.253,75,34.254,75
	c-1.491,0-2.768-0.551-3.836-1.579c-1.066-1.054-1.601-2.322-1.601-3.821c0-1.609,0.62-2.949,1.807-4.03
	c1.041-0.921,2.258-1.394,3.629-1.394c0.941,0,1.889,0.235,2.753,0.735c0.708,0.38,1.303,0.921,1.744,1.54l-1.924,1.399
	c-0.117-0.306-0.292-0.544-0.479-0.751c-0.527-0.648-1.213-0.976-2.076-0.976c-0.804,0-1.476,0.327-2.014,0.976
	c-0.563,0.646-0.824,1.475-0.824,2.5c0,1.026,0.261,1.87,0.824,2.532c0.54,0.627,1.212,0.933,2.014,0.933
	c0.836,0,1.515-0.306,2.048-0.963c0.212-0.237,0.388-0.501,0.507-0.791L38.772,72.706z"/>
<path fill="#FFFFFF" d="M116.125,73.367c-0.449,0-0.818-0.369-0.818-0.818v-6.427H112.5v1.248h0.941v5.679
	c0,0.961,0.84,1.552,1.498,1.552h10.668v-1.233H116.125L116.125,73.367z M120.549,64.843c-0.787-0.537-1.699-0.933-1.699-0.933
	l-0.66,0.842l0.66,0.581h-2.529v7.455h0.514c0.551,0,1.188-0.369,1.188-1.118v-1.031h1.947v2.147h0.541
	c0.646,0,1.121-0.346,1.145-1.132v-1.016h1.975v0.502c0,0.221-0.291,0.384-0.502,0.384h-0.76l0.328,1.262h1.221
	c0.832,0,1.502-0.657,1.502-1.501v-4.928c0-0.566-0.471-1.024-1.027-1.024h-1.975l2.609-1.557v-1.42h-8.799v1.223h6.426
	L120.549,64.843z M119.969,69.44h-1.947v-0.842h1.947V69.44z M119.969,67.413h-1.947v-0.842h1.947V67.413z M123.631,69.44h-1.975
	v-0.842h1.975V69.44z M123.631,66.571v0.842h-1.975v-0.842H123.631z M115.543,64.621c-0.922-1.294-1.934-1.991-1.934-1.991
	l-0.988,0.713l1.66,2.227L115.543,64.621z"/>
<path fill="#FFFFFF" d="M104.547,70.365l-0.834,0.235v-6.955c0-0.789-0.475-1.264-1.066-1.264h-4.412v1.264h3.703v1.924h-1.514
	v-1.292h-1.66v7.705l-0.74,0.223v1.375l3.914-1.11V75h0.713c0.545,0,0.906-0.344,1.066-1.016v-2l0.834-0.239v-1.38H104.547z
	 M101.938,71.077l-1.514,0.418v-1.924h1.514V71.077z M101.938,68.321h-1.514v-1.52h1.514V68.321z M108.76,69.271h2.176v-1.255
	h-2.422v-1.894h2.422v-1.238h-1.582l1.42-1.792l-1.354-0.976l-1.748,2.768h-1.295l1.055-0.764c-0.896-1.242-1.662-2.004-1.662-2.004
	l-0.986,0.606l1.279,2.161h-1.584v1.238h2.084v1.894h-2.084v1.255h1.844l-2.158,5.573h0.922c0.5,0,1.004-0.344,1.199-0.792
	l1.328-3.322l1.822,4.111h1.83L108.76,69.271z"/>
<path fill="#FFFFFF" d="M80.004,63.855H75.95v-1.739h-2.132v1.739h-2.666v1.264h2.666v5.059h-3.297v-6.322h-2.135v7.548h5.43V75
	h0.327c1.211-0.056,1.752-0.581,1.804-1.479v-2.118h3.58c0.963,0,1.765-0.765,1.82-1.756v-4.516
	C81.294,64.435,80.741,63.855,80.004,63.855z M79.227,69.377c0,0.447-0.354,0.801-0.802,0.801H75.95v-5.057h3.276L79.227,69.377
	L79.227,69.377z"/>
<path fill="#FFFFFF" d="M94.681,62.356H85.88v1.223h8.196v9.024c0,0.447-0.346,0.791-0.795,0.791H85.22V62.356h-1.946v12.287h10.984
	c0.975,0,1.78-0.789,1.78-1.792v-9.155C96.035,62.964,95.443,62.356,94.681,62.356z M93.414,70.939h-0.949l0.635-0.784
	c-0.83-0.764-1.49-1.152-1.49-1.152l-0.738,0.741l1.074,1.194h-1.453v-2.08h2.871v-1.251h-2.871v-1.541h2.871v-1.235h-7.429v1.235
	h2.595v1.541h-2.595v1.251h2.595v2.08h-2.646v1.239h7.534L93.414,70.939L93.414,70.939z"/>
</svg>
