<?xml version="1.0" encoding="utf-8"?>
<!-- Generator: Adobe Illustrator 17.0.0, SVG Export Plug-In . SVG Version: 6.00 Build 0)  -->
<!DOCTYPE svg PUBLIC "-//W3C//DTD SVG 1.1//EN" "http://www.w3.org/Graphics/SVG/1.1/DTD/svg11.dtd">
<svg version="1.1" id="图层_1" xmlns="http://www.w3.org/2000/svg" xmlns:xlink="http://www.w3.org/1999/xlink" x="0px" y="0px"
	 width="200px" height="60px" viewBox="0 0 200 60" enable-background="new 0 0 200 60" xml:space="preserve">
<rect x="-31" y="-27" fill="#288CE2" width="274" height="114"/>
<path fill="#D71820" d="M47.542,30.375l2.684-2.658l-2.119-2.102l2.119-2.135l-2.684-2.635l-2.1,2.102c0,0-0.754-0.754-1.4-1.399
	c-2.224-2.23-5.876-2.23-8.105,0c-1.132,1.115-1.681,2.596-1.681,4.066c0,1.455,0.549,2.926,1.681,4.047
	c2.229,2.24,5.881,2.24,8.105,0c0.646-0.637,1.4-1.397,1.4-1.397L47.542,30.375z M41.398,26.996c-0.783,0.783-2.039,0.783-2.811,0
	c-0.374-0.379-0.566-0.887-0.566-1.381c0-0.519,0.193-1.018,0.566-1.406c0.772-0.777,2.028-0.777,2.811,0
	c0.616,0.623,1.388,1.406,1.388,1.406S42.014,26.369,41.398,26.996z M76.716,21.549c-2.231-2.23-5.877-2.23-8.115,0
	c-0.627,0.645-1.397,1.399-1.397,1.399l-2.11-2.102l-2.658,2.635l2.109,2.135l-2.109,2.102l2.658,2.658l2.11-2.11
	c0,0,0.77,0.76,1.397,1.397c2.239,2.24,5.885,2.24,8.115,0c1.123-1.121,1.679-2.593,1.679-4.047
	C78.395,24.145,77.839,22.665,76.716,21.549z M74.057,26.996c-0.767,0.783-2.021,0.783-2.796,0c-0.63-0.627-1.398-1.381-1.398-1.381
	s0.768-0.783,1.398-1.406c0.775-0.777,2.028-0.777,2.796,0c0.388,0.388,0.572,0.887,0.572,1.406
	C74.63,26.109,74.445,26.617,74.057,26.996z M59.009,25.615c0,0,6.23-6.239,6.845-6.862c2.248-2.238,2.248-5.867,0-8.121
	c-2.23-2.231-5.859-2.231-8.114,0c-0.873,0.898-1.389,1.405-1.389,1.405s-0.509-0.508-1.389-1.405c-2.248-2.231-5.878-2.231-8.122,0
	c-2.24,2.254-2.24,5.883,0,8.121c0.621,0.623,6.861,6.862,6.861,6.862s-6.241,6.214-6.861,6.844c-2.24,2.239-2.24,5.875,0,8.123
	c2.245,2.228,5.874,2.228,8.122,0c0.88-0.898,1.389-1.423,1.389-1.423s0.516,0.525,1.389,1.423c2.255,2.228,5.885,2.228,8.114,0
	c2.248-2.248,2.248-5.885,0-8.123C65.239,31.83,59.009,25.615,59.009,25.615z M49.497,16.094c-0.762-0.783-0.762-2.02,0-2.795
	c0.775-0.759,2.034-0.759,2.796,0c0.743,0.742,1.406,1.404,1.406,1.404l-2.119,2.102l2.652,2.667l2.117-2.117l2.118,2.117
	l2.651-2.667l-2.109-2.102c0,0,0.654-0.662,1.406-1.404c0.768-0.759,2.02-0.759,2.788,0c0.775,0.775,0.775,2.012,0,2.795
	c-0.808,0.809-6.867,6.886-6.867,6.886S50.288,16.903,49.497,16.094z M63.202,37.917c-0.767,0.758-2.02,0.758-2.788,0
	c-0.751-0.746-1.406-1.4-1.406-1.4l2.109-2.116l-2.651-2.66l-2.118,2.12l-2.117-2.12l-2.652,2.66l2.119,2.116
	c0,0-0.662,0.654-1.406,1.4c-0.761,0.758-2.021,0.758-2.796,0c-0.762-0.768-0.762-2.039,0-2.797
	c0.791-0.809,6.837-6.886,6.837-6.886s6.06,6.078,6.867,6.886C63.977,35.878,63.977,37.149,63.202,37.917z"/>
<path fill="#FFFFFF" d="M30.863,39.088v0.742c-0.61-0.614-1.309-0.906-2.086-0.906c-0.888,0-1.643,0.316-2.235,0.938
	c-0.593,0.631-0.901,1.423-0.901,2.369c0,0.961,0.309,1.77,0.901,2.399c0.606,0.645,1.354,0.954,2.282,0.954
	c0.728,0,1.404-0.275,2.038-0.854v0.676h1.551v-6.318L30.863,39.088L30.863,39.088z M30.431,43.711
	c-0.351,0.371-0.8,0.563-1.385,0.563c-0.531,0-0.969-0.21-1.322-0.58c-0.336-0.381-0.498-0.859-0.498-1.463
	c0-0.558,0.162-1.043,0.51-1.413c0.35-0.39,0.799-0.584,1.328-0.584c0.566,0,1.015,0.195,1.366,0.584
	c0.351,0.359,0.531,0.854,0.531,1.436C30.962,42.844,30.781,43.322,30.431,43.711z"/>
<path fill="#FFFFFF" d="M9.572,36.234h1.618v3.579c0,0,0.578-0.822,1.835-0.822c1.147,0,2.206,0.765,2.206,2.699v3.749h-1.477
	v-3.864c0-0.662-0.26-1.486-1.197-1.486c-0.914,0-1.367,0.668-1.367,1.486v3.864H9.572L9.572,36.234L9.572,36.234z"/>
<path fill="#FFFFFF" d="M8.997,43.871c-0.354,0.485-0.793,0.905-1.349,1.221c-0.642,0.362-1.361,0.541-2.145,0.541
	c-1.153,0-2.143-0.421-2.959-1.211c-0.816-0.825-1.228-1.794-1.228-2.975c0-1.229,0.456-2.279,1.384-3.103
	c0.814-0.729,1.738-1.1,2.794-1.1c0.756,0,1.475,0.213,2.151,0.566c0.541,0.324,0.998,0.722,1.352,1.222l-1.38,0.984
	c-0.085-0.234-0.227-0.445-0.395-0.638c-0.455-0.517-1.025-0.792-1.743-0.792c-0.696,0-1.272,0.275-1.73,0.807
	c-0.47,0.536-0.697,1.229-0.697,2.053c0,0.856,0.227,1.553,0.697,2.101c0.448,0.517,1.017,0.777,1.73,0.777
	c0.691,0,1.269-0.26,1.743-0.801c0.156-0.201,0.3-0.412,0.395-0.639C7.617,42.885,8.644,43.621,8.997,43.871"/>
<path fill="#FFFFFF" d="M22.691,38.992c-1.527-0.034-2.017,0.822-2.017,0.822l-0.071-0.743h-1.369v6.361h1.583v-3.862
	c0-0.811,0.492-1.497,1.386-1.497c0.941,0,1.222,0.841,1.222,1.497v3.862h1.466v-3.741C24.891,39.741,23.84,38.992,22.691,38.992z"
	/>
<path fill="#FFFFFF" d="M16.434,45.431v-6.387h1.492v6.387C17.925,45.431,16.434,45.431,16.434,45.431z"/>
<path fill="#FFFFFF" d="M17.16,38.407c-0.52,0-0.856-0.396-0.856-0.848c0-0.485,0.367-0.853,0.878-0.853
	c0.545,0,0.873,0.368,0.873,0.853c0,0.453-0.328,0.848-0.873,0.848H17.16z"/>
<path fill="#FFFFFF" d="M17.16,47.799c-0.52,0-0.856-0.388-0.856-0.832c0-0.501,0.367-0.88,0.878-0.88
	c0.545,0,0.873,0.379,0.873,0.88c0,0.445-0.328,0.832-0.873,0.832H17.16z"/>
<path fill="#FFFFFF" d="M39.818,48.397c-0.945-0.015-1.608,0.388-2.159,0.993c-0.371-0.669-0.994-0.961-1.656-0.993
	c-1.359-0.032-1.924,0.825-1.924,0.825l-0.066-0.759h-1.437v6.344h1.609v-3.821c0-0.824,0.435-1.489,1.268-1.489
	c0.855,0,1.107,0.825,1.107,1.489v3.821h1.464c0,0,0-3.725,0-3.741v0.015c0.017-1.083,0.501-1.585,1.244-1.585
	c0.856,0,1.116,0.825,1.116,1.489v3.821h1.463v-3.717C41.847,49.166,40.877,48.429,39.818,48.397z"/>
<path fill="#FFFFFF" d="M16.434,54.806v-6.344h1.492v6.344H16.434z"/>
<path fill="#FFFFFF" d="M28.495,48.315c0.603,0,1.147,0.147,1.678,0.454c0.529,0.291,0.95,0.712,1.224,1.195
	c0.29,0.528,0.452,1.084,0.452,1.659c0,0.605-0.163,1.154-0.452,1.671c-0.295,0.519-0.695,0.938-1.203,1.214
	c-0.514,0.299-1.075,0.435-1.686,0.435c-0.918,0-1.686-0.306-2.324-0.952c-0.65-0.647-0.962-1.432-0.962-2.361
	c0-0.977,0.364-1.795,1.092-2.44C26.947,48.608,27.683,48.315,28.495,48.315z M28.608,49.424c-0.514,0-0.92,0.203-1.253,0.623
	c-0.35,0.418-0.511,0.952-0.511,1.583c0,0.67,0.161,1.214,0.492,1.632c0.347,0.397,0.751,0.6,1.272,0.6
	c0.51,0,0.946-0.204,1.273-0.615c0.349-0.42,0.529-0.954,0.529-1.616c0-0.645-0.18-1.166-0.508-1.599
	C29.563,49.626,29.138,49.424,28.608,49.424z"/>
<path fill="#FFFFFF" d="M13.026,48.366c-1.507-0.015-2.019,0.841-2.019,0.841l-0.071-0.744h-1.38v6.344h1.595v-3.839
	c0-0.839,0.478-1.486,1.366-1.486c0.95,0,1.221,0.814,1.221,1.486v3.839h1.494v-3.725C15.232,49.14,14.173,48.397,13.026,48.366z"/>
<path fill="#FFFFFF" d="M4.812,54.896c1.519,0.022,2.02-0.826,2.02-0.826l0.073,0.736h1.382v-6.344H6.678v3.853
	c0,0.818-0.456,1.497-1.366,1.497c-0.95,0-1.317-0.841-1.317-1.497v-3.853H2.392v3.724C2.392,54.136,3.656,54.88,4.812,54.896z"/>
<path fill="#FFFFFF" d="M25.105,53.569c-0.266,0.406-0.627,0.72-1.068,0.954c-0.508,0.309-1.091,0.454-1.704,0.454
	c-0.915,0-1.698-0.339-2.354-0.97c-0.654-0.646-0.982-1.424-0.982-2.344c0-0.987,0.38-1.81,1.108-2.473
	c0.639-0.565,1.386-0.855,2.227-0.855c0.578,0,1.159,0.144,1.689,0.451c0.435,0.234,0.8,0.566,1.07,0.945l-1.18,0.859
	c-0.072-0.188-0.18-0.334-0.294-0.461c-0.324-0.398-0.744-0.599-1.274-0.599c-0.493,0-0.906,0.201-1.236,0.599
	c-0.345,0.396-0.505,0.905-0.505,1.534c0,0.63,0.16,1.148,0.505,1.553c0.331,0.385,0.744,0.573,1.236,0.573
	c0.513,0,0.929-0.188,1.257-0.591c0.13-0.146,0.238-0.307,0.311-0.486L25.105,53.569z"/>
<path fill="#FFFFFF" d="M72.566,53.975c-0.276,0-0.503-0.227-0.503-0.502v-3.944h-1.721v0.766h0.577v3.484
	c0,0.59,0.516,0.952,0.92,0.952h6.545v-0.757L72.566,53.975L72.566,53.975z M75.28,48.744c-0.482-0.329-1.042-0.573-1.042-0.573
	l-0.405,0.517l0.405,0.357h-1.552v4.574h0.315c0.338,0,0.728-0.226,0.728-0.686V52.3h1.196v1.318h0.331
	c0.397,0,0.689-0.212,0.703-0.695V52.3h1.211v0.308c0,0.136-0.178,0.235-0.307,0.235h-0.467l0.201,0.775h0.75
	c0.51,0,0.921-0.403,0.921-0.921v-3.023c0-0.348-0.289-0.63-0.63-0.63h-1.212l1.601-0.954v-0.872h-5.399v0.75h3.944L75.28,48.744z
	 M74.925,51.565h-1.196v-0.517h1.196V51.565z M74.925,50.321h-1.196v-0.517h1.196V50.321z M77.171,51.565H75.96v-0.517h1.211V51.565
	z M77.171,49.804v0.517H75.96v-0.517H77.171z M72.209,48.608c-0.565-0.794-1.187-1.222-1.187-1.222l-0.606,0.438l1.019,1.366
	L72.209,48.608z"/>
<path fill="#FFFFFF" d="M65.462,52.132l-0.511,0.145v-4.268c0-0.484-0.291-0.775-0.655-0.775h-2.707v0.775h2.271v1.181h-0.928
	v-0.793h-1.018v4.728l-0.454,0.136v0.844l2.401-0.681v1.553h0.437c0.335,0,0.557-0.212,0.655-0.624v-1.227l0.511-0.147v-0.847
	H65.462z M63.86,52.569l-0.928,0.257v-1.181h0.928V52.569z M63.86,50.879h-0.928v-0.933h0.928V50.879z M68.047,51.461h1.335v-0.77
	h-1.487v-1.162h1.487v-0.76h-0.97l0.871-1.1l-0.831-0.598l-1.073,1.698h-0.794l0.646-0.469c-0.549-0.761-1.019-1.229-1.019-1.229
	l-0.606,0.372l0.786,1.326h-0.972v0.76h1.279v1.162h-1.279v0.77h1.132l-1.325,3.419h0.566c0.307,0,0.616-0.211,0.735-0.486
	l0.816-2.038l1.118,2.523h1.122L68.047,51.461z"/>
<path fill="#FFFFFF" d="M50.404,48.138h-2.488v-1.067h-1.308v1.067h-1.635v0.776h1.635v3.103h-2.023v-3.879h-1.31v4.631h3.332v2.207
	h0.201c0.743-0.034,1.075-0.356,1.107-0.907v-1.3h2.196c0.591,0,1.083-0.469,1.117-1.077v-2.77
	C51.195,48.494,50.856,48.138,50.404,48.138z M49.927,51.526c0,0.274-0.218,0.492-0.492,0.492h-1.519v-3.103h2.01V51.526z"/>
<path fill="#FFFFFF" d="M59.409,47.219h-5.4v0.75h5.029v5.537c0,0.274-0.212,0.485-0.488,0.485h-4.946v-6.772H52.41v7.539h6.74
	c0.597,0,1.091-0.485,1.091-1.1v-5.617C60.24,47.591,59.876,47.219,59.409,47.219z M58.632,52.485h-0.583l0.389-0.481
	c-0.509-0.469-0.913-0.707-0.913-0.707l-0.454,0.455l0.658,0.732h-0.891v-1.276h1.763v-0.768h-1.763v-0.945h1.763v-0.758h-4.559
	v0.758h1.592v0.945h-1.592v0.768h1.592v1.276h-1.624v0.761h4.623L58.632,52.485L58.632,52.485z"/>
<text transform="matrix(1 0 0 1 83.5 29.0001)"><tspan x="0" y="0" fill="#FFFFFF" stroke="#FFFFFF" stroke-miterlimit="10" font-family="'MicrosoftYaHeiLight'" font-size="21">智慧工地</tspan><tspan x="0" y="25.2" fill="#FFFFFF" stroke="#FFFFFF" stroke-miterlimit="10" font-family="'MicrosoftYaHeiLight'" font-size="21">wifi管理平台</tspan></text>
</svg>
