<?xml version="1.0" encoding="utf-8"?>
<svg version="1.1" id="图层_1" xmlns="http://www.w3.org/2000/svg" xmlns:xlink="http://www.w3.org/1999/xlink" x="0px" y="0px"
	 width="77.068px" height="46.018px" viewBox="0 0 77.068 46.018" enable-background="new 0 0 77.068 46.018" xml:space="preserve">
<g>
	<path fill="#D71820" d="M46.226,21.417l2.684-2.658l-2.119-2.102l2.119-2.135l-2.684-2.635l-2.1,2.103c0,0-0.754-0.754-1.4-1.399
		c-2.224-2.23-5.876-2.23-8.105,0c-1.132,1.115-1.681,2.596-1.681,4.066c0,1.455,0.549,2.926,1.681,4.047
		c2.229,2.239,5.881,2.239,8.105,0c0.646-0.637,1.4-1.397,1.4-1.397L46.226,21.417z M40.082,18.038
		c-0.783,0.783-2.039,0.783-2.811,0c-0.374-0.379-0.566-0.887-0.566-1.381c0-0.519,0.193-1.018,0.566-1.406
		c0.772-0.777,2.028-0.777,2.811,0c0.616,0.623,1.388,1.406,1.388,1.406S40.698,17.411,40.082,18.038z M75.4,12.59
		c-2.231-2.23-5.877-2.23-8.115,0c-0.627,0.645-1.397,1.399-1.397,1.399l-2.11-2.102l-2.658,2.635l2.109,2.135l-2.109,2.102
		l2.658,2.658l2.11-2.11c0,0,0.77,0.76,1.397,1.397c2.239,2.239,5.885,2.239,8.115,0c1.123-1.121,1.679-2.593,1.679-4.047
		C77.079,15.187,76.523,13.707,75.4,12.59z M72.741,18.038c-0.767,0.783-2.021,0.783-2.796,0c-0.63-0.627-1.398-1.381-1.398-1.381
		s0.768-0.783,1.398-1.406c0.775-0.777,2.028-0.777,2.796,0c0.388,0.388,0.572,0.887,0.572,1.406
		C73.314,17.15,73.129,17.659,72.741,18.038z M57.693,16.657c0,0,6.23-6.239,6.845-6.862c2.248-2.238,2.248-5.867,0-8.121
		c-2.23-2.231-5.859-2.231-8.114,0c-0.873,0.898-1.389,1.405-1.389,1.405s-0.509-0.508-1.389-1.405
		c-2.248-2.231-5.878-2.231-8.122,0c-2.24,2.254-2.24,5.883,0,8.121c0.621,0.623,6.861,6.862,6.861,6.862s-6.241,6.214-6.861,6.844
		c-2.24,2.239-2.24,5.875,0,8.123c2.245,2.229,5.874,2.229,8.122,0c0.88-0.898,1.389-1.422,1.389-1.422s0.516,0.524,1.389,1.422
		c2.255,2.229,5.885,2.229,8.114,0c2.248-2.248,2.248-5.884,0-8.123C63.923,22.872,57.693,16.657,57.693,16.657z M48.181,7.135
		c-0.762-0.783-0.762-2.02,0-2.795c0.775-0.759,2.034-0.759,2.796,0c0.743,0.742,1.406,1.404,1.406,1.404l-2.119,2.102l2.652,2.667
		l2.117-2.117l2.118,2.117l2.651-2.667l-2.109-2.102c0,0,0.654-0.662,1.406-1.404c0.768-0.759,2.02-0.759,2.788,0
		c0.775,0.775,0.775,2.012,0,2.795c-0.808,0.809-6.867,6.886-6.867,6.886S48.972,7.944,48.181,7.135z M61.886,28.958
		c-0.767,0.758-2.02,0.758-2.788,0c-0.751-0.746-1.406-1.399-1.406-1.399l2.109-2.117l-2.651-2.659l-2.118,2.12l-2.117-2.12
		l-2.652,2.659l2.119,2.117c0,0-0.662,0.653-1.406,1.399c-0.761,0.758-2.021,0.758-2.796,0c-0.762-0.769-0.762-2.039,0-2.797
		c0.791-0.81,6.837-6.886,6.837-6.886s6.06,6.079,6.867,6.886C62.661,26.919,62.661,28.19,61.886,28.958z"/>
	<path fill="#130F0F" d="M29.547,30.129v0.742c-0.61-0.614-1.309-0.906-2.086-0.906c-0.888,0-1.643,0.316-2.235,0.937
		c-0.593,0.632-0.901,1.424-0.901,2.369c0,0.961,0.309,1.771,0.901,2.399c0.606,0.646,1.354,0.954,2.282,0.954
		c0.728,0,1.404-0.275,2.038-0.854v0.676h1.551v-6.318H29.547L29.547,30.129z M29.115,34.752c-0.351,0.371-0.8,0.563-1.385,0.563
		c-0.531,0-0.969-0.209-1.322-0.58c-0.336-0.381-0.498-0.858-0.498-1.463c0-0.558,0.162-1.043,0.51-1.412
		c0.35-0.391,0.799-0.584,1.328-0.584c0.566,0,1.015,0.195,1.366,0.584c0.351,0.358,0.531,0.854,0.531,1.436
		C29.646,33.885,29.465,34.363,29.115,34.752z"/>
	<path fill="#130F0F" d="M8.256,27.276h1.618v3.578c0,0,0.578-0.821,1.835-0.821c1.147,0,2.206,0.764,2.206,2.698v3.75h-1.477
		v-3.864c0-0.662-0.26-1.486-1.197-1.486c-0.914,0-1.367,0.668-1.367,1.486v3.864H8.256V27.276L8.256,27.276z"/>
	<path fill="#130F0F" d="M7.681,34.912c-0.354,0.484-0.793,0.904-1.349,1.221c-0.642,0.362-1.361,0.541-2.145,0.541
		c-1.153,0-2.143-0.421-2.959-1.211C0.412,34.639,0,33.669,0,32.488c0-1.229,0.456-2.279,1.384-3.103
		c0.814-0.729,1.738-1.1,2.794-1.1c0.756,0,1.475,0.213,2.151,0.566c0.541,0.323,0.998,0.722,1.352,1.222l-1.38,0.983
		c-0.085-0.233-0.227-0.445-0.395-0.637c-0.455-0.517-1.025-0.792-1.743-0.792c-0.696,0-1.272,0.275-1.73,0.807
		c-0.47,0.537-0.697,1.229-0.697,2.052c0,0.856,0.227,1.554,0.697,2.102c0.448,0.518,1.017,0.777,1.73,0.777
		c0.691,0,1.269-0.26,1.743-0.801c0.156-0.201,0.3-0.412,0.395-0.64C6.301,33.926,7.328,34.662,7.681,34.912"/>
	<path fill="#130F0F" d="M21.375,30.034c-1.527-0.034-2.017,0.822-2.017,0.822l-0.071-0.744h-1.369v6.361h1.583v-3.861
		c0-0.812,0.492-1.497,1.386-1.497c0.941,0,1.222,0.841,1.222,1.497v3.861h1.466v-3.74C23.575,30.782,22.524,30.034,21.375,30.034z"
		/>
	<path fill="#D71820" d="M15.118,36.473v-6.387h1.492v6.387C16.609,36.473,15.118,36.473,15.118,36.473z"/>
	<path fill="#D71820" d="M15.844,29.449c-0.52,0-0.856-0.396-0.856-0.849c0-0.484,0.367-0.853,0.878-0.853
		c0.545,0,0.873,0.368,0.873,0.853c0,0.453-0.328,0.849-0.873,0.849H15.844z"/>
	<path fill="#D71820" d="M15.844,38.84c-0.52,0-0.856-0.388-0.856-0.832c0-0.501,0.367-0.88,0.878-0.88
		c0.545,0,0.873,0.379,0.873,0.88c0,0.445-0.328,0.832-0.873,0.832H15.844z"/>
	<path fill="#130F0F" d="M38.502,39.438c-0.945-0.015-1.608,0.389-2.159,0.994c-0.371-0.67-0.994-0.961-1.656-0.994
		c-1.359-0.031-1.924,0.826-1.924,0.826l-0.066-0.76H31.26v6.344h1.609v-3.82c0-0.824,0.435-1.489,1.268-1.489
		c0.855,0,1.107,0.825,1.107,1.489v3.82h1.464c0,0,0-3.725,0-3.74v0.015c0.017-1.083,0.501-1.585,1.244-1.585
		c0.856,0,1.116,0.824,1.116,1.488v3.822h1.463V42.13C40.531,40.207,39.561,39.471,38.502,39.438z"/>
	<path fill="#D71820" d="M15.118,45.848v-6.345h1.492v6.345H15.118z"/>
	<path fill="#130F0F" d="M27.179,39.355c0.603,0,1.147,0.147,1.678,0.455c0.529,0.291,0.95,0.711,1.224,1.194
		c0.29,0.528,0.452,1.084,0.452,1.659c0,0.605-0.163,1.154-0.452,1.671c-0.295,0.519-0.695,0.938-1.203,1.214
		c-0.514,0.299-1.075,0.436-1.686,0.436c-0.918,0-1.686-0.307-2.324-0.952c-0.65-0.647-0.962-1.433-0.962-2.361
		c0-0.978,0.364-1.795,1.092-2.44C25.631,39.648,26.367,39.355,27.179,39.355z M27.292,40.465c-0.514,0-0.92,0.203-1.253,0.623
		c-0.35,0.418-0.511,0.952-0.511,1.583c0,0.67,0.161,1.214,0.492,1.632c0.347,0.397,0.751,0.6,1.272,0.6
		c0.51,0,0.946-0.203,1.273-0.614c0.349-0.42,0.529-0.954,0.529-1.616c0-0.645-0.18-1.166-0.508-1.599
		C28.247,40.667,27.822,40.465,27.292,40.465z"/>
	<path fill="#130F0F" d="M11.71,39.407c-1.507-0.015-2.019,0.841-2.019,0.841L9.62,39.504H8.24v6.344h1.595v-3.839
		c0-0.839,0.478-1.485,1.366-1.485c0.95,0,1.221,0.813,1.221,1.485v3.839h1.494v-3.725C13.916,40.182,12.857,39.438,11.71,39.407z"
		/>
	<path fill="#130F0F" d="M3.496,45.938c1.519,0.021,2.02-0.826,2.02-0.826l0.073,0.736h1.382v-6.345H5.362v3.853
		c0,0.818-0.456,1.498-1.366,1.498c-0.95,0-1.317-0.842-1.317-1.498v-3.853H1.076v3.724C1.076,45.177,2.34,45.921,3.496,45.938z"/>
	<path fill="#130F0F" d="M23.789,44.609c-0.266,0.406-0.627,0.721-1.068,0.955c-0.508,0.309-1.091,0.453-1.704,0.453
		c-0.915,0-1.698-0.338-2.354-0.97c-0.654-0.646-0.982-1.424-0.982-2.344c0-0.987,0.38-1.81,1.108-2.474
		c0.639-0.564,1.386-0.854,2.227-0.854c0.578,0,1.159,0.144,1.689,0.451c0.435,0.233,0.8,0.565,1.07,0.944l-1.18,0.859
		c-0.072-0.188-0.18-0.334-0.294-0.461c-0.324-0.398-0.744-0.599-1.274-0.599c-0.493,0-0.906,0.2-1.236,0.599
		c-0.345,0.396-0.505,0.905-0.505,1.534c0,0.63,0.16,1.147,0.505,1.553c0.331,0.386,0.744,0.573,1.236,0.573
		c0.513,0,0.929-0.188,1.257-0.591c0.13-0.146,0.238-0.308,0.311-0.486L23.789,44.609z"/>
	<path fill="#130F0F" d="M71.25,45.016c-0.276,0-0.503-0.227-0.503-0.502V40.57h-1.721v0.766h0.577v3.484
		c0,0.59,0.516,0.951,0.92,0.951h6.545v-0.756H71.25L71.25,45.016z M73.964,39.785c-0.482-0.329-1.042-0.573-1.042-0.573
		l-0.405,0.517l0.405,0.357H71.37v4.574h0.315c0.338,0,0.728-0.227,0.728-0.686v-0.634h1.196v1.318h0.331
		c0.397,0,0.689-0.212,0.703-0.695v-0.623h1.211v0.308c0,0.137-0.178,0.235-0.307,0.235H75.08l0.201,0.775h0.75
		c0.51,0,0.921-0.403,0.921-0.921v-3.023c0-0.348-0.289-0.63-0.63-0.63H75.11l1.601-0.954v-0.872h-5.399v0.75h3.944L73.964,39.785z
		 M73.609,42.605h-1.196v-0.517h1.196V42.605z M73.609,41.361h-1.196v-0.516h1.196V41.361z M75.855,42.605h-1.211v-0.517h1.211
		V42.605z M75.855,40.846v0.516h-1.211v-0.516H75.855z M70.893,39.648c-0.565-0.793-1.187-1.222-1.187-1.222L69.1,38.865
		l1.019,1.365L70.893,39.648z"/>
	<path fill="#130F0F" d="M64.146,43.173l-0.511,0.146V39.05c0-0.483-0.291-0.774-0.655-0.774h-2.707v0.774h2.271v1.181h-0.928
		v-0.793h-1.018v4.729l-0.454,0.136v0.845l2.401-0.682v1.553h0.437c0.335,0,0.557-0.211,0.655-0.623v-1.228l0.511-0.147v-0.847
		H64.146z M62.544,43.609l-0.928,0.258v-1.182h0.928V43.609z M62.544,41.92h-0.928v-0.934h0.928V41.92z M66.731,42.502h1.335v-0.77
		h-1.487V40.57h1.487v-0.76h-0.97l0.871-1.101l-0.831-0.599l-1.073,1.699h-0.794l0.646-0.47c-0.549-0.761-1.019-1.229-1.019-1.229
		l-0.606,0.373l0.786,1.326h-0.972v0.76h1.279v1.162h-1.279v0.77h1.132l-1.325,3.419h0.566c0.307,0,0.616-0.211,0.735-0.485
		l0.816-2.039l1.118,2.523h1.122L66.731,42.502z"/>
	<path fill="#130F0F" d="M49.088,39.18H46.6v-1.068h-1.308v1.068h-1.635v0.775h1.635v3.104h-2.023V39.18h-1.31v4.631h3.332v2.207
		h0.201c0.743-0.035,1.075-0.356,1.107-0.908v-1.299h2.196c0.591,0,1.083-0.47,1.117-1.078v-2.77
		C49.879,39.535,49.54,39.18,49.088,39.18z M48.611,42.566c0,0.274-0.218,0.492-0.492,0.492H46.6v-3.103h2.01L48.611,42.566
		L48.611,42.566z"/>
	<path fill="#130F0F" d="M58.093,38.26h-5.4v0.75h5.029v5.537c0,0.274-0.212,0.485-0.488,0.485h-4.946V38.26h-1.194v7.539h6.74
		c0.597,0,1.091-0.484,1.091-1.1v-5.617C58.924,38.632,58.56,38.26,58.093,38.26z M57.316,43.525h-0.583l0.389-0.48
		c-0.509-0.469-0.913-0.707-0.913-0.707l-0.454,0.455l0.658,0.732h-0.891v-1.276h1.763V41.48h-1.763v-0.944h1.763v-0.759h-4.559
		v0.759h1.592v0.944h-1.592v0.769h1.592v1.276h-1.624v0.761h4.623L57.316,43.525L57.316,43.525z"/>
</g>
</svg>
