<?xml version="1.0" encoding="utf-8"?>
<!-- Generator: Adobe Illustrator 17.0.0, SVG Export Plug-In . SVG Version: 6.00 Build 0)  -->
<!DOCTYPE svg PUBLIC "-//W3C//DTD SVG 1.1//EN" "http://www.w3.org/Graphics/SVG/1.1/DTD/svg11.dtd">
<svg version="1.1" id="图层_1" xmlns="http://www.w3.org/2000/svg" xmlns:xlink="http://www.w3.org/1999/xlink" x="0px" y="0px"
	 width="190px" height="50px" viewBox="0 0 190 50" enable-background="new 0 0 190 50" xml:space="preserve">
<rect x="-21" y="-9" fill="#5CADF1" width="274" height="114"/>
<g>
	<path fill="#D71820" d="M48.533,23.76l2.684-2.658L49.098,19l2.119-2.135l-2.684-2.635l-2.1,2.102c0,0-0.754-0.754-1.4-1.399
		c-2.224-2.23-5.876-2.23-8.105,0c-1.132,1.115-1.681,2.596-1.681,4.066c0,1.455,0.549,2.926,1.681,4.047
		c2.229,2.24,5.881,2.24,8.105,0c0.646-0.637,1.4-1.397,1.4-1.397L48.533,23.76z M42.389,20.381c-0.783,0.783-2.039,0.783-2.811,0
		c-0.374-0.379-0.566-0.887-0.566-1.381c0-0.519,0.193-1.018,0.566-1.406c0.772-0.777,2.028-0.777,2.811,0
		C43.005,18.217,43.777,19,43.777,19S43.005,19.754,42.389,20.381z M77.707,14.934c-2.231-2.23-5.877-2.23-8.115,0
		c-0.627,0.645-1.397,1.399-1.397,1.399l-2.11-2.102l-2.658,2.635l2.109,2.135l-2.109,2.102l2.658,2.658l2.11-2.11
		c0,0,0.77,0.76,1.397,1.397c2.239,2.24,5.885,2.24,8.115,0c1.123-1.121,1.679-2.593,1.679-4.047
		C79.386,17.53,78.83,16.05,77.707,14.934z M75.048,20.381c-0.767,0.783-2.021,0.783-2.796,0C71.622,19.754,70.854,19,70.854,19
		s0.768-0.783,1.398-1.406c0.775-0.777,2.028-0.777,2.796,0c0.388,0.388,0.572,0.887,0.572,1.406
		C75.621,19.494,75.436,20.002,75.048,20.381z M60,19c0,0,6.23-6.239,6.845-6.862c2.248-2.238,2.248-5.867,0-8.121
		c-2.23-2.231-5.859-2.231-8.114,0c-0.873,0.898-1.389,1.405-1.389,1.405s-0.509-0.508-1.389-1.405
		c-2.248-2.231-5.878-2.231-8.122,0c-2.24,2.254-2.24,5.883,0,8.121C48.452,12.761,54.692,19,54.692,19s-6.241,6.214-6.861,6.844
		c-2.24,2.239-2.24,5.875,0,8.123c2.245,2.228,5.874,2.228,8.122,0c0.88-0.898,1.389-1.423,1.389-1.423s0.516,0.525,1.389,1.423
		c2.255,2.228,5.885,2.228,8.114,0c2.248-2.248,2.248-5.885,0-8.123C66.23,25.215,60,19,60,19z M50.488,9.479
		c-0.762-0.783-0.762-2.02,0-2.795c0.775-0.759,2.034-0.759,2.796,0c0.743,0.742,1.406,1.404,1.406,1.404l-2.119,2.102l2.652,2.667
		l2.117-2.117l2.118,2.117l2.651-2.667L60,8.088c0,0,0.654-0.662,1.406-1.404c0.768-0.759,2.02-0.759,2.788,0
		c0.775,0.775,0.775,2.012,0,2.795c-0.808,0.809-6.867,6.886-6.867,6.886S51.279,10.288,50.488,9.479z M64.193,31.302
		c-0.767,0.758-2.02,0.758-2.788,0c-0.751-0.746-1.406-1.4-1.406-1.4l2.109-2.116l-2.651-2.66l-2.118,2.12l-2.117-2.12l-2.652,2.66
		l2.119,2.116c0,0-0.662,0.654-1.406,1.4c-0.761,0.758-2.021,0.758-2.796,0c-0.762-0.768-0.762-2.039,0-2.797
		c0.791-0.809,6.837-6.886,6.837-6.886s6.06,6.078,6.867,6.886C64.968,29.263,64.968,30.534,64.193,31.302z"/>
	<path fill="#FFFFFF" d="M31.854,32.473v0.742c-0.61-0.614-1.309-0.906-2.086-0.906c-0.888,0-1.643,0.316-2.235,0.938
		c-0.593,0.631-0.901,1.423-0.901,2.369c0,0.961,0.309,1.77,0.901,2.399c0.606,0.645,1.354,0.954,2.282,0.954
		c0.728,0,1.404-0.275,2.038-0.854v0.676h1.551v-6.318L31.854,32.473L31.854,32.473z M31.422,37.096
		c-0.351,0.371-0.8,0.563-1.385,0.563c-0.531,0-0.969-0.21-1.322-0.58c-0.336-0.381-0.498-0.859-0.498-1.463
		c0-0.558,0.162-1.043,0.51-1.413c0.35-0.39,0.799-0.584,1.328-0.584c0.566,0,1.015,0.195,1.366,0.584
		c0.351,0.359,0.531,0.854,0.531,1.436C31.953,36.229,31.772,36.707,31.422,37.096z"/>
	<path fill="#FFFFFF" d="M10.563,29.619h1.618v3.579c0,0,0.578-0.822,1.835-0.822c1.147,0,2.206,0.765,2.206,2.699v3.749h-1.477
		V34.96c0-0.662-0.26-1.486-1.197-1.486c-0.914,0-1.367,0.668-1.367,1.486v3.864h-1.618L10.563,29.619L10.563,29.619z"/>
	<path fill="#FFFFFF" d="M9.988,37.256c-0.354,0.485-0.793,0.905-1.349,1.221c-0.642,0.362-1.361,0.541-2.145,0.541
		c-1.153,0-2.143-0.421-2.959-1.211c-0.816-0.825-1.228-1.794-1.228-2.975c0-1.229,0.456-2.279,1.384-3.103
		c0.814-0.729,1.738-1.1,2.794-1.1c0.756,0,1.475,0.213,2.151,0.566c0.541,0.324,0.998,0.722,1.352,1.222l-1.38,0.984
		c-0.085-0.234-0.227-0.445-0.395-0.638c-0.455-0.517-1.025-0.792-1.743-0.792c-0.696,0-1.272,0.275-1.73,0.807
		c-0.47,0.536-0.697,1.229-0.697,2.053c0,0.856,0.227,1.553,0.697,2.101c0.448,0.517,1.017,0.777,1.73,0.777
		c0.691,0,1.269-0.26,1.743-0.801c0.156-0.201,0.3-0.412,0.395-0.639C8.608,36.27,9.635,37.006,9.988,37.256"/>
	<path fill="#FFFFFF" d="M23.682,32.377c-1.527-0.034-2.017,0.822-2.017,0.822l-0.071-0.743h-1.369v6.361h1.583v-3.862
		c0-0.811,0.492-1.497,1.386-1.497c0.941,0,1.222,0.841,1.222,1.497v3.862h1.466v-3.741C25.882,33.126,24.831,32.377,23.682,32.377z
		"/>
	<path fill="#FFFFFF" d="M17.425,38.816v-6.387h1.492v6.387C18.916,38.816,17.425,38.816,17.425,38.816z"/>
	<path fill="#FFFFFF" d="M18.151,31.792c-0.52,0-0.856-0.396-0.856-0.848c0-0.485,0.367-0.853,0.878-0.853
		c0.545,0,0.873,0.368,0.873,0.853c0,0.453-0.328,0.848-0.873,0.848H18.151z"/>
	<path fill="#FFFFFF" d="M18.151,41.184c-0.52,0-0.856-0.388-0.856-0.832c0-0.501,0.367-0.88,0.878-0.88
		c0.545,0,0.873,0.379,0.873,0.88c0,0.445-0.328,0.832-0.873,0.832H18.151z"/>
	<path fill="#FFFFFF" d="M40.809,41.782c-0.945-0.015-1.608,0.388-2.159,0.993c-0.371-0.669-0.994-0.961-1.656-0.993
		c-1.359-0.032-1.924,0.825-1.924,0.825l-0.066-0.759h-1.437v6.344h1.609v-3.821c0-0.824,0.435-1.489,1.268-1.489
		c0.855,0,1.107,0.825,1.107,1.489v3.821h1.464c0,0,0-3.725,0-3.741v0.015c0.017-1.083,0.501-1.585,1.244-1.585
		c0.856,0,1.116,0.825,1.116,1.489v3.821h1.463v-3.717C42.838,42.551,41.868,41.814,40.809,41.782z"/>
	<path fill="#FFFFFF" d="M17.425,48.191v-6.344h1.492v6.344H17.425z"/>
	<path fill="#FFFFFF" d="M29.486,41.7c0.603,0,1.147,0.147,1.678,0.454c0.529,0.291,0.95,0.712,1.224,1.195
		c0.29,0.528,0.452,1.084,0.452,1.659c0,0.605-0.163,1.154-0.452,1.671c-0.295,0.519-0.695,0.938-1.203,1.214
		c-0.514,0.299-1.075,0.435-1.686,0.435c-0.918,0-1.686-0.306-2.324-0.952c-0.65-0.647-0.962-1.432-0.962-2.361
		c0-0.977,0.364-1.795,1.092-2.44C27.938,41.993,28.674,41.7,29.486,41.7z M29.599,42.809c-0.514,0-0.92,0.203-1.253,0.623
		c-0.35,0.418-0.511,0.952-0.511,1.583c0,0.67,0.161,1.214,0.492,1.632c0.347,0.397,0.751,0.6,1.272,0.6
		c0.51,0,0.946-0.204,1.273-0.615c0.349-0.42,0.529-0.954,0.529-1.616c0-0.645-0.18-1.166-0.508-1.599
		C30.554,43.011,30.129,42.809,29.599,42.809z"/>
	<path fill="#FFFFFF" d="M14.017,41.751c-1.507-0.015-2.019,0.841-2.019,0.841l-0.071-0.744h-1.38v6.344h1.595v-3.839
		c0-0.839,0.478-1.486,1.366-1.486c0.95,0,1.221,0.814,1.221,1.486v3.839h1.494v-3.725C16.223,42.525,15.164,41.782,14.017,41.751z"
		/>
	<path fill="#FFFFFF" d="M5.803,48.281c1.519,0.022,2.02-0.826,2.02-0.826l0.073,0.736h1.382v-6.344H7.669V45.7
		c0,0.818-0.456,1.497-1.366,1.497c-0.95,0-1.317-0.841-1.317-1.497v-3.853H3.383v3.724C3.383,47.521,4.647,48.265,5.803,48.281z"/>
	<path fill="#FFFFFF" d="M26.096,46.954c-0.266,0.406-0.627,0.72-1.068,0.954c-0.508,0.309-1.091,0.454-1.704,0.454
		c-0.915,0-1.698-0.339-2.354-0.97c-0.654-0.646-0.982-1.424-0.982-2.344c0-0.987,0.38-1.81,1.108-2.473
		c0.639-0.565,1.386-0.855,2.227-0.855c0.578,0,1.159,0.144,1.689,0.451c0.435,0.234,0.8,0.566,1.07,0.945l-1.18,0.859
		c-0.072-0.188-0.18-0.334-0.294-0.461c-0.324-0.398-0.744-0.599-1.274-0.599c-0.493,0-0.906,0.201-1.236,0.599
		c-0.345,0.396-0.505,0.905-0.505,1.534c0,0.63,0.16,1.148,0.505,1.553c0.331,0.385,0.744,0.573,1.236,0.573
		c0.513,0,0.929-0.188,1.257-0.591c0.13-0.146,0.238-0.307,0.311-0.486L26.096,46.954z"/>
	<path fill="#FFFFFF" d="M73.557,47.36c-0.276,0-0.503-0.227-0.503-0.502v-3.944h-1.721v0.766h0.577v3.484
		c0,0.59,0.516,0.952,0.92,0.952h6.545v-0.757L73.557,47.36L73.557,47.36z M76.271,42.129c-0.482-0.329-1.042-0.573-1.042-0.573
		l-0.405,0.517l0.405,0.357h-1.552v4.574h0.315c0.338,0,0.728-0.226,0.728-0.686v-0.633h1.196v1.318h0.331
		c0.397,0,0.689-0.212,0.703-0.695v-0.623h1.211v0.308c0,0.136-0.178,0.235-0.307,0.235h-0.467l0.201,0.775h0.75
		c0.51,0,0.921-0.403,0.921-0.921v-3.023c0-0.348-0.289-0.63-0.63-0.63h-1.212l1.601-0.954v-0.872h-5.399v0.75h3.944L76.271,42.129z
		 M75.916,44.95H74.72v-0.517h1.196V44.95z M75.916,43.706H74.72v-0.517h1.196V43.706z M78.162,44.95h-1.211v-0.517h1.211V44.95z
		 M78.162,43.189v0.517h-1.211v-0.517H78.162z M73.2,41.993c-0.565-0.794-1.187-1.222-1.187-1.222l-0.606,0.438l1.019,1.366
		L73.2,41.993z"/>
	<path fill="#FFFFFF" d="M66.453,45.517l-0.511,0.145v-4.268c0-0.484-0.291-0.775-0.655-0.775H62.58v0.775h2.271v1.181h-0.928
		v-0.793h-1.018v4.728l-0.454,0.136v0.844l2.401-0.681v1.553h0.437c0.335,0,0.557-0.212,0.655-0.624v-1.227l0.511-0.147v-0.847
		C66.455,45.517,66.453,45.517,66.453,45.517z M64.851,45.954l-0.928,0.257V45.03h0.928V45.954z M64.851,44.264h-0.928v-0.933h0.928
		V44.264z M69.038,44.846h1.335v-0.77h-1.487v-1.162h1.487v-0.76h-0.97l0.871-1.1l-0.831-0.598l-1.073,1.698h-0.794l0.646-0.469
		c-0.549-0.761-1.019-1.229-1.019-1.229l-0.606,0.372l0.786,1.326h-0.972v0.76h1.279v1.162h-1.279v0.77h1.132l-1.325,3.419h0.566
		c0.307,0,0.616-0.211,0.735-0.486l0.816-2.038l1.118,2.523h1.122L69.038,44.846z"/>
	<path fill="#FFFFFF" d="M51.395,41.523h-2.488v-1.067h-1.308v1.067h-1.635v0.776h1.635v3.103h-2.023v-3.879h-1.31v4.631h3.332
		v2.207h0.201c0.743-0.034,1.075-0.356,1.107-0.907v-1.3h2.196c0.591,0,1.083-0.469,1.117-1.077v-2.77
		C52.186,41.879,51.847,41.523,51.395,41.523z M50.918,44.911c0,0.274-0.218,0.492-0.492,0.492h-1.519V42.3h2.01v2.611H50.918z"/>
	<path fill="#FFFFFF" d="M60.4,40.604H55v0.75h5.029v5.537c0,0.274-0.212,0.485-0.488,0.485h-4.946v-6.772h-1.194v7.539h6.74
		c0.597,0,1.091-0.485,1.091-1.1v-5.617C61.231,40.976,60.867,40.604,60.4,40.604z M59.623,45.87H59.04l0.389-0.481
		c-0.509-0.469-0.913-0.707-0.913-0.707l-0.454,0.455l0.658,0.732h-0.891v-1.276h1.763v-0.768h-1.763V42.88h1.763v-0.758h-4.559
		v0.758h1.592v0.945h-1.592v0.768h1.592v1.276h-1.624v0.761h4.623L59.623,45.87L59.623,45.87z"/>
</g>
<text transform="matrix(1 0 0 1 82 20)" fill="none" stroke="#FFFFFF" stroke-miterlimit="10" font-family="'MicrosoftYaHeiLight'" font-size="18">黑龙江分公司</text>
<text transform="matrix(1 0 0 1 83 46.0004)" fill="none" stroke="#FFFFFF" stroke-miterlimit="10" font-family="'MicrosoftYaHeiLight'" font-size="18">WIFI云平台</text>
</svg>
