<?xml version="1.0" encoding="utf-8"?>
<svg version="1.1" xmlns="http://www.w3.org/2000/svg" xmlns:xlink="http://www.w3.org/1999/xlink" x="0px" y="0px"
	 fill="#1BA1F8" width="50px" height="50px" viewBox="0 0 1000 1000" enable-background="new 0 0 1000 1000" xml:space="preserve">
<g>
	<path d="M500,70c58.08,0,114.387,11.359,167.354,33.763c51.195,21.654,97.188,52.668,136.701,92.182
		c39.514,39.513,70.527,85.506,92.182,136.702C918.641,385.613,930,441.919,930,500c0,58.08-11.359,114.387-33.763,167.354
		c-21.654,51.195-52.668,97.188-92.182,136.701c-39.513,39.514-85.506,70.527-136.701,92.182C614.387,918.641,558.08,930,500,930
		c-58.081,0-114.387-11.359-167.354-33.763c-51.196-21.654-97.189-52.668-136.702-92.182
		c-39.514-39.513-70.527-85.506-92.182-136.701C81.359,614.387,70,558.08,70,500c0-58.081,11.359-114.387,33.763-167.354
		c21.654-51.196,52.668-97.189,92.182-136.702c39.513-39.514,85.506-70.527,136.702-92.182C385.613,81.359,441.919,70,500,70 M500,0
		C223.857,0,0,223.857,0,500s223.857,500,500,500s500-223.857,500-500S776.143,0,500,0L500,0z"/>
</g>
<g>
	<path d="M562.816,354.645c0,79.617-127.094,126.364-109.563,249.076h73.772c-12.416-108.834,117.6-148.277,117.6-254.92
		c0-85.46-59.164-133.668-143.895-133.668c-60.625,0-109.564,29.217-145.355,70.12l47.479,43.097
		c24.104-27.027,54.052-44.557,88.382-44.557C537.252,283.792,562.816,314.471,562.816,354.645z"/>
	<path d="M491.235,666.537c-32.139,0-56.243,25.566-56.243,59.896c0,34.331,24.104,58.435,56.243,58.435
		c31.409,0,56.243-24.104,56.243-58.435C547.479,692.104,522.645,666.537,491.235,666.537z"/>
</g>
</svg>
